/* XPM */
static char * char_down_xpm[] = {
"64 64 154 2",
"  	c #7BAA53",
". 	c #6C9352",
"+ 	c #729553",
"@ 	c #617E4C",
"# 	c #7BA452",
"$ 	c #7EA04E",
"% 	c #000000",
"& 	c #82AD5B",
"* 	c #82B35D",
"= 	c #7DAD5A",
"- 	c #84AD62",
"; 	c #7CA459",
"> 	c #75AA55",
", 	c #75A252",
"' 	c #80A753",
") 	c #7EB056",
"! 	c #86BA65",
"~ 	c #372423",
"{ 	c #799D51",
"] 	c #749C53",
"^ 	c #799D5B",
"/ 	c #6C944E",
"( 	c #638C4D",
"_ 	c #5A8447",
": 	c #7EB059",
"< 	c #49251C",
"[ 	c #222323",
"} 	c #81A954",
"| 	c #86B262",
"1 	c #583126",
"2 	c #617D45",
"3 	c #7C9D4E",
"4 	c #74944E",
"5 	c #6A854D",
"6 	c #73945A",
"7 	c #6A8D4E",
"8 	c #63844B",
"9 	c #457C40",
"0 	c #728D56",
"a 	c #2D3136",
"b 	c #6C8D52",
"c 	c #648546",
"d 	c #679151",
"e 	c #101520",
"f 	c #5E894B",
"g 	c #2E3D47",
"h 	c #181F2F",
"i 	c #8BB26B",
"j 	c #72994F",
"k 	c #6E9B52",
"l 	c #82AA72",
"m 	c #71A565",
"n 	c #5E8755",
"o 	c #71A15B",
"p 	c #6C8D63",
"q 	c #5B9054",
"r 	c #4E794D",
"s 	c #6C976B",
"t 	c #548246",
"u 	c #498943",
"v 	c #6DA15A",
"w 	c #4F8145",
"x 	c #699563",
"y 	c #538349",
"z 	c #74B25B",
"A 	c #729D5D",
"B 	c #648C52",
"C 	c #477D3F",
"D 	c #608A5A",
"E 	c #6B9B62",
"F 	c #885041",
"G 	c #1D2C43",
"H 	c #23324D",
"I 	c #547B43",
"J 	c #9A624C",
"K 	c #4C7D42",
"L 	c #537343",
"M 	c #718755",
"N 	c #789147",
"O 	c #5B7C3E",
"P 	c #597635",
"Q 	c #809A66",
"R 	c #537335",
"S 	c #4D6D2F",
"T 	c #586F45",
"U 	c #5C7448",
"V 	c #566F36",
"W 	c #516D39",
"X 	c #4E663A",
"Y 	c #425C2C",
"Z 	c #445C32",
"` 	c #43602A",
" .	c #5A7643",
"..	c #879A79",
"+.	c #889A7A",
"@.	c #798C6A",
"#.	c #819672",
"$.	c #738565",
"%.	c #6E8461",
"&.	c #7B916B",
"*.	c #758D61",
"=.	c #758D4B",
"-.	c #627255",
";.	c #6B7B5E",
">.	c #5E7B49",
",.	c #58654F",
"'.	c #54614B",
").	c #5D6B53",
"!.	c #596651",
"~.	c #5C7B43",
"{.	c #6A8552",
"].	c #54753C",
"^.	c #577939",
"/.	c #6C8459",
"(.	c #4C7131",
"_.	c #4E752F",
":.	c #35531E",
"<.	c #3D5E24",
"[.	c #4A6734",
"}.	c #89AD75",
"|.	c #85A96F",
"1.	c #79A064",
"2.	c #90B46C",
"3.	c #3E572C",
"4.	c #6E9868",
"5.	c #7BA26C",
"6.	c #5F9957",
"7.	c #5B854A",
"8.	c #9CAC88",
"9.	c #8C9782",
"0.	c #7B9868",
"a.	c #92B07C",
"b.	c #8AAD6B",
"c.	c #96AB81",
"d.	c #A1A69E",
"e.	c #9FA39B",
"f.	c #999E94",
"g.	c #909B86",
"h.	c #839D6A",
"i.	c #75916B",
"j.	c #90B272",
"k.	c #89A272",
"l.	c #9BA492",
"m.	c #939B8A",
"n.	c #858E7C",
"o.	c #628251",
"p.	c #87A371",
"q.	c #89B165",
"r.	c #7E9F61",
"s.	c #677B5B",
"t.	c #849975",
"u.	c #4F7741",
"v.	c #5A994B",
"w.	c #476A3C",
"                    . + @ . . #     $     # #               % % % % % % % % % % %   & * $ $ #   # # = * #   & - & # ;     # $   ",
"=       # >                               $ # *           % % % % % % % % % % % % % %   $   # # $   #   # & #     # ,   # # '   ",
")       $ #     $     )   = )       = &       !         % % % ~ ~ ~ ~ ~ ~ ~ ~ ~ % % % % , # $ $ # # ' $ ' { {     { ] ,         ",
"    '     # $ # $ # $ > $             & % % % % % % % % % % ~ ~ ~ ~ ~ ~ ~ ~ ~ ~ ~ ~ % % %     # # $ #   { # , # ] ^   # / ( _   ",
")   #         # , $ $ $ # : *   &   % % % % % % % % % % % ~ ~ < < < < < < < < < < ~ ~ % % % # $ # # # # #     { { , $       ]   ",
"    =   *   $   $   >   $ : :   % % % % % [ [ [ [ [ % % ~ ~ < < < < < < < < < < < < < ~ % % % & & } # $ $ #   #   #   >       = ",
"  ) )   | =         &     !   % % % % [ [ [ [ [ [ [ % % ~ < < < < 1 1 1 1 1 1 1 < < < < ~ % % %   ] ^ 2 & 3 ' # # #   )         ",
"    ) & |         & *   , , % % % [ [ [ [ [ [ [ [ % % % ~ < < < 1 1 1 1 1 1 1 1 1 1 < < < ~ % % % { 4 5 # 6 3 # # * |       # , ",
"      & = , ] { > *   : = % % % [ [ [ [ [ [ [ [ [ % % ~ < < < 1 1 1 1 1 1 1 1 1 1 1 1 < < < ~ % % % + 7 8 { {     ! #     # { { ",
"      *   # 6 6 #     ) % % % [ [ [ [ [ [ [ [ [ [ % % ~ < < < 1 1 1 1 1 1 1 1 1 1 1 1 1 < < < ~ % % % 8 9 0 ] ] # # # #       # ",
"  # ,       { 6 #     % % % [ [ [ [ a a a a [ [ % % % % % % % % % % % % 1 1 1 1 1 1 1 1 1 < < < ~ % % % b # c , $ # =           ",
"  + 6   > $   = | &   % % [ [ [ a a a a a a a % % % % % % % % % % % % % % % 1 1 1 1 1 1 1 1 < < ~ ~ % % % . { #     &     # , ; ",
"  , #   d d #   & & % % % [ [ a a a a a a a a % % % % % e e e e e e e % % % % % 1 1 1 1 1 1 < < < ~ ~ % % % # $ # # *   #   ] ^ ",
"        d d $       % % [ [ a a a a a a a a % % % % e e e e e e e e e e e % % % % 1 1 1 1 1 1 < < ~ ~ ~ % % #   $   # & #     # ",
"= &     , f $ $     % % [ [ a a a a a a a % % % e e e e e e e e e e e e e e e % % % 1 1 1 1 1 < < < ~ ~ % % $ #       $ #       ",
"  &     , f #       % % [ a a a a g g g % % % e e e e e e h h h h h e e e e e e % % % 1 1 1 1 < < < ~ ~ % %   #   #           | ",
"& &             )   % % [ a a a g g g g % % e e e e e h h h h h h h h h e e e e e % % 1 1 1 1 < < < ~ ~ % %     # $     , , , | ",
"= &     >       )   % % [ a a g g g g % % % e e e e e h h h h h h h h h e e e e e % % % 1 1 < < < < ~ ~ % % i - , # j > j   k > ",
"          ) $   ) > % % [ a a g g g g % % e e e e e h h h h h h h h h h h e e e e e % % 1 < < < < ~ ~ ~ % % l m k , . d j f f   ",
"      $     $   $   % % [ a a g g g g % % e e e e e h h h h h h h h h h h e e e e e % % < < < < < ~ ~ % % % m k n o / ( k f   ) ",
"      $   )   > ]   % % [ a a g g g g % % e e e e e h h h h h h h h h h h e e e e e % % < < < ~ ~ ~ % % % p l q r s t _ > u ^ # ",
"  = :   #       !   % % [ a a g g g g % % e e e e e h h h h h h h h h h h e e e e e % % < ~ ~ % % % % % % v m f w x w y z u A = ",
"  ) )           : | % % [ a a g g g g % % e e e e e e h h h h e h h h h e e e e e e % % ~ % % % % % % % % o > B C D _ y z D E * ",
")   #       , ) : = % % % [ a F F F F % % e e e e e G h h h e e e h h h G e e e e e % % % % % % [ [ [ % % % k B u k _ t z n x   ",
":   *   $   (   > = % % % [ F F F F F % % e e e e G G G H h h e h h H G G G e e e e % % % % [ [ [ [ [ [ % % > B C _ f w ( I # : ",
")       # # d   > , d % % F F F J J J % % e e e G G G H H H H H H H H H G G G e e e % % % [ [ [ [ [ [ [ % % > n K w . ] _ L = * ",
"*   * #   # k , + ] . % % F F J J J J % % e e G G G G H H H H H H H H H G G G G e e % % [ [ [ [ [ [ [ [ % % k d _ 8 B / ] +   : ",
"*     ' $ $ k / ] # . % % F J J J J J % % e e G G G G H H H H H H H H H G G G G e e % % a a a a [ [ [ [ % % > . ] ( ( d ,     = ",
"        )     $   # j % % F J J J J J % % e e e G G G G H H H H H H H G G G G e e e % % a a a a a [ [ [ % %   , . 7 ]   & + &   ",
"& )     , # ,     =   % % % J J J J J % % e e e e G G G G H H H H H G G G G e e e e % % a a a a a a [ [ % % = # ] d .   & 6 #   ",
"      , d f f           % % % J J J J % % e e e e e G G G G G G G G G G G e e e e e % % a a a a a a [ [ % % :     ( ,           ",
"                # ) =     % % % % % % % % e e e e h h h G G G G G G G h h h e e e e % % g g g a a a a [ % % :         >         ",
"                $ = ) * $ # % % % % % % % e e e h h h h h h h h h h h h h h h e e e % % g g g g a a a [ % % ,                   ",
"            $           , $ #   # # # % % % e e h h h h h h h h h h h h h h h e e % % % g g g g g a a % % % $ *             # j ",
"  $ # > =   $ # #     $ # # > $ # #     % % e e h h h h h h h h h h h h h h h e e % % g g g g g g g a % %     !             k , ",
"    / k )     )     = $ #   $ # # # # # % % % e e h h h h h h h h h h h h h e e % % % g g g g g g g % % %       >           / , ",
"    f   # # ' | & $ &   # # # $ # ' { ' ' % % e e h h h h h h h h h h h h h e e % % F g g g g g g % % % , ]     j #   >     / , ",
"( , (   # $ )     3     $ # $ * } & ' { { % % % e h h h h h h h h h h h h h e % % % F F g g g g g % % { #       / #   $       , ",
"j         $ ' 3 3 3   $ 3 3 # $ } M 6 2 } { % % % e e h h h h h h h h h e e % % % J J F g g g g % % % j k #   ] / $   #       , ",
"  >     & '     N j 7 3 { # O P 2 M 2 2 Q b $ % % % % e e e e e e e e e % % % % J J J F g g % % % %   , k 3 $ . (   $ # $       ",
")     $ j $ > 3 3 / ]   # c 5 2 2 2 R S T U 4 ' % % % % % % % % % % % % % % % J J J J F % % % % %       > # $ j (             * ",
"  $ ,   /     $ 3 ( #   P V P W X V S Y Y Z + { $ ' % % % % % % % % % % % J J J J J J % % % %       #       $ / (           & * ",
"  $ 3 $ / # {   ] 8 3 # 4 V ` X Y S Y  .0 ] ] # 3 # &     >       # { % % % J J J % % % % ..+.@.c =   $ $               } * * ' ",
"  > $ 4 / # $ # 4 j ] 3 3 $ c 8 5 4 4 7 $ + { $ '   &     $ # ,   ] 6   % % % % % % % % #...$.%.&.*.8 6     =           &       ",
"> $ > $ {     ' =.3 4 4 , & j 8 5 ( ( b d + $ # #   &     # { ]   , ,   d % % % % %   -.-.-.;.-.%.;.>.^ + ] & & )   ] ,   ,     ",
"        {     3 4 { 7 4 { # / c 5 >.8 8 8 , #   #   # & #   #           d d #       + . ,.,.'.).!.).@ + b + - & =   d d   f /   ",
"      , # # { # N { 7 { 3 # 3 4 / ~.8 8 b { , # $     $         } &     ] f $ 3 $       ] + {.{.@ ].8 b b /   $     > _   t t   ",
"  $   # # , ] # 3 3 ( { 3 # , + =.7 4 ] 3 j   #   #           * = &     , f #     )   & &   &   = & = ] # , ,   )     f ( , C   ",
"] / ^./.^.(.>., { + b { 3 # 3 #   $ >   $ >     # # #   , , , * & =             )     & & & &       $   }       *     # w d w   ",
"6 ^.U b ^._.>.R O 4 4 3 } #   # $     #   * i | , # , , ,   k >   *           #         :   }     $ $   & & }     #   > t ( > j ",
":.<.X ].k L (.[.U { # #   ' # #     > , ) }.|.1.k , / / k f f         # > ) #   )       :   #     $ $ ,   * 2.*     :   . C c , ",
"].3.<.Y ~.[.<.Y Y + d # $ =   & $   k , 4.5.m 6.n o / ( k f > =         $   #   >   & B k   #     #         =       * ) * t + j ",
"] b b ] 6   + ] #   . #       &   > k f 7.p l q r s t y > w A #               # ,   *   = &       : ,   ) )           > : =   # ",
"] + {   =   # - 8.9.0.#       j ] = z c y v z f K x u y z _ A =     *     )     |       a.i b.= . , / ,         #   =     : =   ",
"      #   # c.d.e.f.g.h.    # j 7.  z t n v v B K D f y z n E *     &           : *   a.! | b.i.f B c   # d   # 3 #     >     ) ",
"| j.i   >   k.g.l.m.n.k $       B f z f k E d o.C d 7.y z f x = )           , : * = ..&.6 : p.$.b   f =   d   ] j # , $       & ",
"  q.i   =   r.Q 6 @.5 ] {   # # = t z 7.7.E v f C f 7.K ( I # : &   =   $   (   = | . s.%.5.t.s.6 { (   = 7., , $ # 3 3 $ ) >   ",
"        ) = # k { #     > #   j , K . y f E , f K I ] ] _ u.: * )   )     $ 7 > = > . k ; ! : + k = 7 / = _ $ # , #   , $       ",
"  )     =     #   # , .       # # ( y w d E k B y ( B / + +   : * ) * $ #   ] ] . 6 . , * * . d > # j # 8 _ # ,   3       >     ",
"  * >         # B , , 7.j ]   ] . ] f C     v B ] 7 ( . ;       ) )     # $ k . ] $ k   = $ { k # ( I ~._ I #         d / d )   ",
") )             ( d   , f 7.  f + { , ] ] >   , / ( +   & ]           =       #   # ] , > k . f B t I _   _ _     #   , , f d   ",
":         ] d d k t j ] u v.d d # $ # , { , =   ] b . = & j #   &       , , ,       $ )   $ , _ d ( t y     ,           )       ",
")       > ( d / , y 8 , u.( K _         {   :     f { =   >           # d f f             # >         &         -         '   ' ",
")                 d 7.7.w.L L 8     #       )                                     )     # # $       q.& &     & =   &       '   "};
