/* XPM */
static char * collec1_xpm[] = {
"64 64 165 2",
"  	c #7BAA53",
". 	c #6C9352",
"+ 	c #729553",
"@ 	c #617E4C",
"# 	c #7BA452",
"$ 	c #7EA04E",
"% 	c #75AA55",
"& 	c #82AD5B",
"* 	c #82B35D",
"= 	c #7DAD5A",
"- 	c #84AD62",
"; 	c #7CA459",
"> 	c #75A252",
", 	c #749C53",
"' 	c #80A753",
") 	c #7EB056",
"! 	c #86BA65",
"~ 	c #6C944E",
"{ 	c #638C4D",
"] 	c #799D51",
"^ 	c #5E894B",
"/ 	c #548246",
"( 	c #679151",
"_ 	c #6E9B52",
": 	c #799D5B",
"< 	c #5A8447",
"[ 	c #7EB059",
"} 	c #72994F",
"| 	c #648546",
"1 	c #7C9D4E",
"2 	c #4F8145",
"3 	c #81A954",
"4 	c #86B262",
"5 	c #617D45",
"6 	c #789147",
"7 	c #6A8D4E",
"8 	c #74944E",
"9 	c #6A854D",
"0 	c #73945A",
"a 	c #63844B",
"b 	c #6C8D52",
"c 	c #5B7937",
"d 	c #547B43",
"e 	c #5C7B43",
"f 	c #457C40",
"g 	c #728D56",
"h 	c #879A79",
"i 	c #99A78F",
"j 	c #909B86",
"k 	c #4D793F",
"l 	c #49733E",
"m 	c #889A7A",
"n 	c #A1A69E",
"o 	c #8C9782",
"p 	c #798C6A",
"q 	c #5B854A",
"r 	c #4F7741",
"s 	c #627255",
"t 	c #5D6B53",
"u 	c #738169",
"v 	c #858E7C",
"w 	c #727F69",
"x 	c #738565",
"y 	c #5E7B49",
"z 	c #758D4B",
"A 	c #537343",
"B 	c #538349",
"C 	c #4C7D42",
"D 	c #58654F",
"E 	c #596651",
"F 	c #54614B",
"G 	c #5C6D4F",
"H 	c #000000",
"I 	c #3E6838",
"J 	c #476A3C",
"K 	c #6A8552",
"L 	c #5A7643",
"M 	c #001835",
"N 	c #80B9FF",
"O 	c #3E5832",
"P 	c #4C6A3A",
"Q 	c #648C52",
"R 	c #0F7CFF",
"S 	c #001938",
"T 	c #54753C",
"U 	c #6D885A",
"V 	c #4C7131",
"W 	c #5C7448",
"X 	c #718755",
"Y 	c #577939",
"Z 	c #4E752F",
"` 	c #537335",
" .	c #5B7C3E",
"..	c #8BB26B",
"+.	c #90B46C",
"@.	c #003B82",
"#.	c #516D39",
"$.	c #4A6734",
"%.	c #89AD75",
"&.	c #82AA72",
"*.	c #71A565",
"=.	c #425C2C",
"-.	c #496931",
";.	c #3D5E24",
">.	c #6E9868",
",.	c #7BA26C",
"'.	c #5E8755",
").	c #71A15B",
"!.	c #6C8D63",
"~.	c #5B9054",
"{.	c #4E794D",
"].	c #6C976B",
"^.	c #498943",
"/.	c #92B07C",
"(.	c #8AAD6B",
"_.	c #67855B",
":.	c #749662",
"<.	c #74B25B",
"[.	c #6DA15A",
"}.	c #699563",
"|.	c #729D5D",
"1.	c #96AB81",
"2.	c #75916B",
"3.	c #5D7A54",
"4.	c #7E9F61",
"5.	c #477D3F",
"6.	c #608A5A",
"7.	c #6B9B62",
"8.	c #849975",
"9.	c #85A569",
"0.	c #758D61",
"a.	c #76AF5D",
"b.	c #677B5B",
"c.	c #81A167",
"d.	c #628251",
"e.	c #6F9D5E",
"f.	c #5A994B",
"g.	c #89B165",
"h.	c #98B87C",
"i.	c #597635",
"j.	c #4D6D2F",
"k.	c #566F36",
"l.	c #4E663A",
"m.	c #43602A",
"n.	c #819672",
"o.	c #6E8461",
"p.	c #7B916B",
"q.	c #6B7B5E",
"r.	c #6C8459",
"s.	c #35531E",
"t.	c #85A96F",
"u.	c #79A064",
"v.	c #3E572C",
"w.	c #5F9957",
"x.	c #9CAC88",
"y.	c #7B9868",
"z.	c #9FA39B",
"A.	c #999E94",
"B.	c #839D6A",
"C.	c #90B272",
"D.	c #89A272",
"E.	c #9BA492",
"F.	c #939B8A",
"G.	c #87A371",
"H.	c #809A66",
"                    . + @ . . #     $     # #                                 % #   & * $ $ #   # # = * #   & - & # ;     # $   ",
"=       # %                               $ # *             > ,           $ $     #     $   # # $   #   # & #     # >   # # '   ",
")       $ #     $     )   = )       = &       !             ~ {     >   )     $ #   ) $ > # $ $ # # ' $ ' ] ]     ] , >         ",
"    '     # $ # $ # $ % $             & * #     $           ^ /     ( _   ) $ )     ) # #     # # $ #   ] # > # , :   # ~ { <   ",
")   #         # > $ $ $ # [ *   &       > }     }       #   < /     |     #   * & $ ) # #   # $ # # # # #     ] ] > $       ,   ",
"    =   *   $   $   %   $ [ [         1 #       ( # % $     > 2 ( > {   # $ =   # 1     $ $ # & & 3 # $ $ #   #   #   %       = ",
"  ) )   4 =         &     !       # # } _ #   , ~ $   1       / ,         1 ' $ 1 1   $ 1 > # #   , : 5 & 1 ' # # #   )         ",
"    ) & 4         & *   > >         # > _ $ # . ~ $   #                 &       6 , ( 1 $ $ } 7 8 ] 8 9 # 0 1 # # * 4       # > ",
"      & = > , ] % *   [ = >               # # ~ {   $       3 *       $ , $   1 1 ~ ,   ] 8 # a b ] + 7 a ] ]     ! #     # ] ] ",
"      *   # 0 0 #     ) > ) =       # #     $ ~ ^         = & *   # $ > . #   # ] 7     c } , d e + ~ a f g , , # # # #       # ",
"  # >       ] 0 #         h i j b   # # #       )       & & =       1 > ~ $ 1   } { 1 # 8 + d 9 k ~ { l b # | > $ # =           ",
"  + 0   % $   = 4 &     m n n j o p a 0                 &           } 1 ~ # ] # 8 ~ + 1 $ ' d q d { ^ r ] . ] #     &     # > ; ",
"  > #   ( ( #   & &   s t u v w v x y : , + & & )   > >   >           > 1     # z 1 8 8 # & > < A B C d 7 . # $ # # *   #   , : ",
"        ( ( $       + b D E F E D G a + . + & &     ( ( = q H H     % # }     # 8 1 7 8 ] ' ] a d I l J a } #   $   # & #     # ",
"= &     > ^ $ $         ] . K K @ L a ( b + % #       B   H M N H     # $ > > $ 8 1 7 ] 1 # ] 8 9 O P A b } $ #       $ #       ",
"  &     > ^ #         & & &   =   &   , ] ] #   )     { Q H M R H $       # } # 1 1 { ] 1 # # + 7 9 7 , ] ,   #   #           4 ",
"& &             )     & ) * =       #           &       H S M R N H T U T V y # ] 8 ~ ] 1 $ # $ $ $     $       # $     > > > 4 ",
"= &     %       )       =   &     $ $ # & & =     %     H S M R N H W X Y Z y `  .+ 8 1 3 # # #       # = * ..- > # } % }   _ % ",
"          ) $   ) %     )   # $   $ $ #   * +.&     ) H @.S M R N N H T _ A #.$.W ] # # # &     #   % > [ %.&.*._ > . ( } ^ ^   ",
"      $     $   $   = ( _       $   %       &       * H @.S M R N N H =.d -.;.;.=.. _ $ $ =       # > _ >.,.*._ '.).~ { _ ^   ) ",
"      $   )   % ,   *   & &       ) >   &       %   H @.@.S M R N N N H +   0 , # # .   #     =   % , ^ < !.&.~.{.]./ < % ^.: # ",
"  = [   #       !       /...(.= _ > .           $   H @.@.S M R @.N N H = #   & - _.:.#       _ }   <.^ / [.*.^ 2 }.2 B <.^.|.= ",
"  ) )           [ 4 = 1.! * (.2.^ ^ _   # ,   $ > H @.@.@.S M R @.N N N H   - - - 3.:.4.      , q   <.< ^ ).% Q 5.6.< B <.6.7.* ",
")   #       > ) [ = 8.2.0 = 9.0.b   ~     }   > 1 H @.@.@.S M R @.@.N N H & ' : & ; : , # % $   ( _ a.{ _ 7._ Q ^._ < / <.'.}.  ",
"[   *   $   {   % = 0 b.U :.c.U . > 0     _ $ ] H @.@.@.@.S M N @.@.N N N H # ; ] : + , ]     $ = Q a.( ^ |.% Q 5.< ^ 2 { d # [ ",
")       # # (   % > ( _ # ) = , , = > >   _ # > H @.@.@.@.S M N @.@.N N N H # > > % #   # % $ > , Q = ( d.7.% '.C 2 . , < A = * ",
"*   * #   # _ > + , . % =   ] ] #   $   ] > $ H @.@.@.@.@.S M N @.N N N N N H     $ > .   # % # # _ _ Q ( e._ ( < a Q ~ , +   [ ",
"*     ' $ $ _ ~ , # .   = # > > > { C / / /   H @.@.@.@.@.S M N @.N @.@.N N H   ( > > B , >   , . # , Q #   % . , { { ( >     = ",
"        )     $   # } >   . ( ^ Q / d <   q H @.@.@.@.R @.S M N @.N @.@.N N N H { (   > '.^   ^ . # > _ ] >   > . 7 ,   & + &   ",
"& )     > # >     =       # > < ( { / <     H @.@.@.@.R @.S M R @.N @.N N N N H . / > > ^.f.( (   # # # ] > = # , ( .   & 0 #   ",
"      > ( ^ ^           $ #           & = H @.@.@.@.@.R @.S M R @.N @.N N N N N H < q ] k { r <         $   [     { >           ",
"                # ) =               g.h.g.H @.R R @.@.R @.S M N N N @.N N N N N H ( q a J A T q   # #     = [         %         ",
"                $ = ) * $ # #   #     - H @.@.R R R @.R @.S M N N @.N N N N N N N H . + @ + . #     #     $ >                   ",
"            $           > $ #   # # #   H @.@.@.R R R R @.S S N N @.N N @.@.@.@.N H       #               $ $ *             # } ",
"  $ # % =   $ # #     $ # # % $ # #   H @.R R R R @.R R @.@.@.N S S S @.S S S S S S S =     )     3 & &       !             _ > ",
"    ~ _ )     )     = $ #   $ # # # # H R R R R @.@.R R @.@.@.N S S S @.@.S @.S S S S # #             & &       %           ~ > ",
"    ^   # # ' 4 & $ &   # # # $ # ' ] H R R R R @.R R @.@.@.@.N @.S S @.@.@.S @.@.@.S # # ) &   &       > ,     } #   %     ~ > ",
"{ > {   # $ )     1     $ # $ * 3 & ' H R R R @.@.R R @.@.@.@.N @.S S @.@.S @.S @.@.H   $ ) ) %       ] #       ~ #   $       > ",
"}         $ ' 1 1 1   $ 1 1 # $ 3 X 0 H R R @.@.R R R @.@.@.@.N @.S S @.@.S @.@.S @.H     !         $ } _ #   , ~ $   #       > ",
"  %     & '     6 } 7 1 ] #  .i.5 X 5 5 H R @.R @.R @.@.@.@.M N @.S S @.@.@.S @.S H *   > %       $   > _ 1 $ . {   $ # $       ",
")     $ } $ % 1 1 ~ ,   # | 9 5 5 5 ` j.H @.@.R @.R @.@.@.@.M N @.S S S @.@.S @.@.H   * ) >             % # $ } {             * ",
"  $ >   ~     $ 1 { #   i.k.i.#.l.k.j.=.=.H @.@.R @.@.@.@.R M N @.S S S @.@.S S H     = > & =       #       $ ~ {           & * ",
"  $ 1 $ ~ # ]   , a 1 # 8 k.m.l.=.j.=.L g H @.@.R @.@.@.R R M N @.S S S @.@.S S H         h m p | =   $ $               3 * * ' ",
"  % $ 8 ~ # $ # 8 } , 1 1 $ | a 9 8 8 7 $ + H @.R @.@.@.R R M N @.S S S @.@.@.H * &     n.h x o.p.0.a 0     =           &       ",
"% $ % $ ]     ' z 1 8 8 > & } a 9 { { b ( + H @.R @.@.R R R M N @.S S S @.S S H = &   s s s q.s o.q.y : + , & & )   , >   >     ",
"        ]     1 8 ] 7 8 ] # ~ | 9 y a a a > H @.@.@.@.R R R M N @.S S S @.S S H     + . D D F t E t @ + b + - & =   ( (   ^ ~   ",
"      > # # ] # 6 ] 7 ] 1 # 1 8 ~ e a a b ] > H @.@.R R R R M N @.S S S @.S H 1 $       , + K K @ T a b b ~   $     % <   / /   ",
"  $   # # > , # 1 1 { ] 1 # > + z 7 8 , 1 }   H @.@.R R R R M N @.S S S @.S H     )   & &   &   = & = , # > >   )     ^ { > 5.  ",
", ~ Y r.Y V y > ] + b ] 1 # 1 #   $ %   $ %     H @.R R R R M R @.S S S @.H     )     & & & &       $   3       *     # 2 ( 2   ",
"0 Y W b Y Z y `  .8 8 1 3 #   # $     #   * ..4 H R R R R R M R @.S S S @.H   #         [   3     $ $   & & 3     #   % / { % } ",
"s.;.l.T _ A V $.W ] # #   ' # #     % > ) %.t.u._ H R R R R M R @.S S S H ) #   )       [   #     $ $ >   * +.*     [   . 5.| > ",
"T v.;.=.e $.;.=.=.+ ( # $ =   & $   _ > >.,.*.w.'.H R R R R M R @.S S S H   #   %   & Q _   #     #         =       * ) * / + } ",
", b b , 0   + , #   . #       &   % _ ^ q !.&.~.{.].H R R R M R @.@.@.S       # >   *   = &       [ >   ) )           % [ =   # ",
", + ]   =   # - x.o y.#       } , = <.| B [.<.^ C }.H R R R M R @.@.@.H   )     4       /...(.= . > ~ >         #   =     [ =   ",
"      #   # 1.n z.A.j B.    # } q   <./ '.[.[.Q C 6.^ H R R M R @.@.H           [ *   /.! 4 (.2.^ Q |   # (   # 1 #     %     ) ",
"4 C...  %   D.j E.F.v _ $       Q ^ <.^ _ 7.( d.5.( q H R R S R @.@.H       > [ * = h p.0 [ G.x b   ^ =   (   , } # > $       & ",
"  g...  =   4.H.0 p 9 , ]   # # = / <.q q 7.[.^ 5.^ q C H R S R @.H =   $   {   = 4 . b.o.,.8.b.0 ] {   = q > > $ # 1 1 $ ) %   ",
"        ) = # _ ] #     % #   } > C . B ^ 7.> ^ C d , , H R S R @.H )     $ 7 % = % . _ ; ! [ + _ = 7 ~ = < $ # > #   > $       ",
"  )     =     #   # > .       # # { B 2 ( 7._ Q B { Q ~ + H @.R H ) * $ #   , , . 0 . > * * . ( % # } # a < # >   1       %     ",
"  * %         # Q > > q } ,   , . , ^ 5.    [.Q , 7 { . ;   H H ) )     # $ _ . , $ _   = $ ] _ # { d e < d #         ( ~ ( )   ",
") )             { (   > ^ q   ^ + ] > , , %   > ~ { +   & ,           =       #   # , > % _ . ^ Q / d <   < <     #   > > ^ (   ",
"[         , ( ( _ / } , ^.f.( ( # $ # > ] > =   , b . = & } #   &       > > >       $ )   $ > < ( { / B     >           )       ",
")       % { ( ~ > B a > r { C <         ]   [     ^ ] =   %           # ( ^ ^             # %         &         -         '   ' ",
")                 ( q q J A A a     #       )                                     )     # # $       g.& &     & =   &       '   "};
