/* XPM */
static char * collec2_xpm[] = {
"64 64 166 2",
"  	c #7BAA53",
". 	c #6C9352",
"+ 	c #729553",
"@ 	c #617E4C",
"# 	c #7BA452",
"$ 	c #7EA04E",
"% 	c #75AA55",
"& 	c #82AD5B",
"* 	c #82B35D",
"= 	c #7DAD5A",
"- 	c #84AD62",
"; 	c #7CA459",
"> 	c #75A252",
", 	c #749C53",
"' 	c #80A753",
") 	c #7EB056",
"! 	c #86BA65",
"~ 	c #6C944E",
"{ 	c #638C4D",
"] 	c #799D51",
"^ 	c #5E894B",
"/ 	c #548246",
"( 	c #679151",
"_ 	c #6E9B52",
": 	c #799D5B",
"< 	c #5A8447",
"[ 	c #7EB059",
"} 	c #72994F",
"| 	c #648546",
"1 	c #7C9D4E",
"2 	c #4F8145",
"3 	c #81A954",
"4 	c #86B262",
"5 	c #617D45",
"6 	c #789147",
"7 	c #6A8D4E",
"8 	c #74944E",
"9 	c #6A854D",
"0 	c #73945A",
"a 	c #63844B",
"b 	c #6C8D52",
"c 	c #000000",
"d 	c #5B7937",
"e 	c #547B43",
"f 	c #5C7B43",
"g 	c #457C40",
"h 	c #728D56",
"i 	c #879A79",
"j 	c #99A78F",
"k 	c #909B86",
"l 	c #001835",
"m 	c #80B9FF",
"n 	c #4D793F",
"o 	c #49733E",
"p 	c #889A7A",
"q 	c #A1A69E",
"r 	c #8C9782",
"s 	c #798C6A",
"t 	c #5B854A",
"u 	c #4F7741",
"v 	c #627255",
"w 	c #5D6B53",
"x 	c #738169",
"y 	c #858E7C",
"z 	c #727F69",
"A 	c #738565",
"B 	c #5E7B49",
"C 	c #001938",
"D 	c #758D4B",
"E 	c #537343",
"F 	c #538349",
"G 	c #4C7D42",
"H 	c #58654F",
"I 	c #596651",
"J 	c #54614B",
"K 	c #5C6D4F",
"L 	c #0F7CFF",
"M 	c #3E6838",
"N 	c #476A3C",
"O 	c #6A8552",
"P 	c #5A7643",
"Q 	c #003B82",
"R 	c #3E5832",
"S 	c #4C6A3A",
"T 	c #54753C",
"U 	c #4C7131",
"V 	c #577939",
"W 	c #4E752F",
"X 	c #537335",
"Y 	c #5B7C3E",
"Z 	c #8BB26B",
"` 	c #90B46C",
" .	c #516D39",
"..	c #4A6734",
"+.	c #5C7448",
"@.	c #89AD75",
"#.	c #82AA72",
"$.	c #71A565",
"%.	c #496931",
"&.	c #3D5E24",
"*.	c #425C2C",
"=.	c #6E9868",
"-.	c #7BA26C",
";.	c #5E8755",
">.	c #71A15B",
",.	c #6C8D63",
"'.	c #5B9054",
").	c #4E794D",
"!.	c #6C976B",
"~.	c #498943",
"{.	c #92B07C",
"].	c #8AAD6B",
"^.	c #67855B",
"/.	c #749662",
"(.	c #74B25B",
"_.	c #6DA15A",
":.	c #699563",
"<.	c #729D5D",
"[.	c #96AB81",
"}.	c #75916B",
"|.	c #5D7A54",
"1.	c #7E9F61",
"2.	c #648C52",
"3.	c #477D3F",
"4.	c #608A5A",
"5.	c #6B9B62",
"6.	c #849975",
"7.	c #85A569",
"8.	c #758D61",
"9.	c #76AF5D",
"0.	c #677B5B",
"a.	c #6D885A",
"b.	c #81A167",
"c.	c #628251",
"d.	c #6F9D5E",
"e.	c #5A994B",
"f.	c #89B165",
"g.	c #718755",
"h.	c #597635",
"i.	c #809A66",
"j.	c #4D6D2F",
"k.	c #586F45",
"l.	c #566F36",
"m.	c #4E663A",
"n.	c #445C32",
"o.	c #43602A",
"p.	c #819672",
"q.	c #6E8461",
"r.	c #7B916B",
"s.	c #6B7B5E",
"t.	c #6C8459",
"u.	c #35531E",
"v.	c #85A96F",
"w.	c #79A064",
"x.	c #3E572C",
"y.	c #5F9957",
"z.	c #9CAC88",
"A.	c #7B9868",
"B.	c #9FA39B",
"C.	c #999E94",
"D.	c #839D6A",
"E.	c #90B272",
"F.	c #89A272",
"G.	c #9BA492",
"H.	c #939B8A",
"I.	c #87A371",
"                    . + @ . . #     $     # #                                 % #   & * $ $ #   # # = * #   & - & # ;     # $   ",
"=       # %                               $ # *             > ,           $ $     #     $   # # $   #   # & #     # >   # # '   ",
")       $ #     $     )   = )       = &       !             ~ {     >   )     $ #   ) $ > # $ $ # # ' $ ' ] ]     ] , >         ",
"    '     # $ # $ # $ % $             & * #     $           ^ /     ( _   ) $ )     ) # #     # # $ #   ] # > # , :   # ~ { <   ",
")   #         # > $ $ $ # [ *   &       > }     }       #   < /     |     #   * & $ ) # #   # $ # # # # #     ] ] > $       ,   ",
"    =   *   $   $   %   $ [ [         1 #       ( # % $     > 2 ( > {   # $ =   # 1     $ $ # & & 3 # $ $ #   #   #   %       = ",
"  ) )   4 =         &     !       # # } _ #   , ~ $   1       / ,         1 ' $ 1 1   $ 1 > # #   , : 5 & 1 ' # # #   )         ",
"    ) & 4         & *   > >         # > _ $ # . ~ $   #                 &       6 , ( 1 $ $ } 7 8 ] 8 9 # 0 1 # # * 4       # > ",
"      & = > , ] % *   [ = >               # # ~ {   $       3 *       $ , $   1 1 ~ ,   ] 8 # a b ] + 7 a ] ]     ! #     # ] ] ",
"      *   # 0 0 #     ) > ) =       # #     $ ~ ^         = c c   # $ > . #   # ] 7     d } , e f + ~ a g h , , # # # #       # ",
"  # >       ] 0 #         i j k b   # # #       )       & c l m c   1 > ~ $ 1   } { 1 # 8 + e 9 n ~ { o b # | > $ # =           ",
"  + 0   % $   = 4 &     p q q k r s a 0                 & c l m c   } 1 ~ # ] # 8 ~ + 1 $ ' e t e { ^ u ] . ] #     &     # > ; ",
"  > #   ( ( #   & &   v w x y z y A B : , + & & )   > > c C l m m c   > 1     # D 1 8 8 # & > < E F G e 7 . # $ # # *   #   , : ",
"        ( ( $       + b H I J I H K a + . + & &     ( ( c C l m L c % # }     # 8 1 7 8 ] ' ] a e M o N a } #   $   # & #     # ",
"= &     > ^ $ $         ] . O O @ P a ( b + % #       c Q C l m L L c # $ > > $ 8 1 7 ] 1 # ] 8 9 R S E b } $ #       $ #       ",
"  &     > ^ #         & & &   =   &   , ] ] #   )     c Q C l m Q L c     # } # 1 1 { ] 1 # # + 7 9 7 , ] ,   #   #           4 ",
"& &             )     & ) * =       #           &   c Q Q C l m Q L m c T U B # ] 8 ~ ] 1 $ # $ $ $     $       # $     > > > 4 ",
"= &     %       )       =   &     $ $ # & & =     % c Q Q C l L Q L L c V W B X Y + 8 1 3 # # #       # = * Z - > # } % }   _ % ",
"          ) $   ) %     )   # $   $ $ #   * ` &   c Q Q Q C l L Q Q L m c E  ...+.] # # # &     #   % > [ @.#.$._ > . ( } ^ ^   ",
"      $     $   $   = ( _       $   %       &     c Q Q Q C l L Q Q m m c %.&.&.*.. _ $ $ =       # > _ =.-.$._ ;.>.~ { _ ^   ) ",
"      $   )   % ,   *   & &       ) >   &       c Q Q Q Q C l L Q Q Q m m c 0 , # # .   #     =   % , ^ < ,.#.'.).!./ < % ~.: # ",
"  = [   #       !       {.Z ].= _ > .           c Q L Q Q C l L m Q Q m m c   & - ^./.#       _ }   (.^ / _.$.^ 2 :.2 F (.~.<.= ",
"  ) )           [ 4 = [.! * ].}.^ ^ _   # ,   c Q Q L Q Q C l L m Q Q m m m c - - |./.1.      , t   (.< ^ >.% 2.3.4.< F (.4.5.* ",
")   #       > ) [ = 6.}.0 = 7.8.b   ~     }   c Q L L Q Q C l L m Q Q Q m m c : & ; : , # % $   ( _ 9.{ _ 5._ 2.~._ < / (.;.:.  ",
"[   *   $   {   % = 0 0.a./.b.a.. > 0     _ c Q Q L L L Q C l m m Q Q Q m m m c ] : + , ]     $ = 2.9.( ^ <.% 2.3.< ^ 2 { e # [ ",
")       # # (   % > ( _ # ) = , , = > >   _ c Q Q L L L Q C l m m Q Q m m m m c > % #   # % $ > , 2.= ( c.5.% ;.G 2 . , < E = * ",
"*   * #   # _ > + , . % =   ] ] #   $   ] c Q L Q L L L Q C l m m m Q m m m m m c $ > .   # % # # _ _ 2.( d._ ( < a 2.~ , +   [ ",
"*     ' $ $ _ ~ , # .   = # > > > { G / / c Q L L L L L Q C l m m m Q m m m Q m c > > F , >   , . # , 2.#   % . , { { ( >     = ",
"        )     $   # } >   . ( ^ 2./ e < c Q Q L L L L L Q C l m m m m m m Q Q Q m c   > ;.^   ^ . # > _ ] >   > . 7 ,   & + &   ",
"& )     > # >     =       # > < ( { / < c L L L L L L L Q C C m m Q m Q Q Q Q Q m c > > ~.e.( (   # # # ] > = # , ( .   & 0 #   ",
"      > ( ^ ^           $ #           c L L L L L L L L Q C C m m Q Q Q Q Q Q m Q m c ] n { u <         $   [     { >           ",
"                # ) =               f.l L L L L L L L C C C l m Q Q Q Q Q Q Q Q Q m c a N E T t   # #     = [         %         ",
"                $ = ) * $ # #   #     l L L L L L L Q C C C C m Q Q Q Q Q Q Q Q Q m c + @ + . #     #     $ >                   ",
"            $           > $ #   # # # l L L L L C C C C l Q Q Q C C l l l m m m m m c     #               $ $ *             # } ",
"  $ # % =   $ # #     $ # # % $ # #   l L L Q Q L L L L Q Q Q L Q C C C C C Q Q C Q c =     )     3 & &       !             _ > ",
"    ~ _ )     )     = $ #   $ # # # # # c L Q L L L L Q Q Q l L Q C C C C C C Q C c $ # #             & &       %           ~ > ",
"    ^   # # ' 4 & $ &   # # # $ # ' ] ' c Q Q L L L L Q Q Q l L Q C C C C C C Q Q c 1 # # ) &   &       > ,     } #   %     ~ > ",
"{ > {   # $ )     1     $ # $ * 3 & ' ] ] c Q Q L L Q Q Q Q l L Q C C C C C C C c       $ ) ) %       ] #       ~ #   $       > ",
"}         $ ' 1 1 1   $ 1 1 # $ 3 g.0 5 3 c Q Q L L Q Q Q Q l L Q C C C C C C C c   =     !         $ } _ #   , ~ $   #       > ",
"  %     & '     6 } 7 1 ] # Y h.5 g.5 5 i.b c L L Q Q Q Q L l L Q C C C C C C c   & *   > %       $   > _ 1 $ . {   $ # $       ",
")     $ } $ % 1 1 ~ ,   # | 9 5 5 5 X j.k.+.c L L Q Q L Q L l L Q C C C Q C C c   *   * ) >             % # $ } {             * ",
"  $ >   ~     $ 1 { #   h.l.h. .m.l.j.*.*.n.c Q Q Q Q L Q L l L Q C C C Q C C c       = > & =       #       $ ~ {           & * ",
"  $ 1 $ ~ # ]   , a 1 # 8 l.o.m.*.j.*.P h , , c Q Q L Q Q L l L Q C C C Q C c 0 #         i p s | =   $ $               3 * * ' ",
"  % $ 8 ~ # $ # 8 } , 1 1 $ | a 9 8 8 7 $ + ] c Q Q L Q Q L l L Q C C C Q C c   * &     p.i A q.r.8.a 0     =           &       ",
"% $ % $ ]     ' D 1 8 8 > & } a 9 { { b ( + $ # c Q L Q L L l L Q C C C Q c #   = &   v v v s.v q.s.B : + , & & )   , >   >     ",
"        ]     1 8 ] 7 8 ] # ~ | 9 B a a a > #   c L Q Q L L l L Q C C C Q c #       + . H H J w I w @ + b + - & =   ( (   ^ ~   ",
"      > # # ] # 6 ] 7 ] 1 # 1 8 ~ f a a b ] > # $ c Q Q L L l m Q C C Q c ^ $ 1 $       , + O O @ T a b b ~   $     % <   / /   ",
"  $   # # > , # 1 1 { ] 1 # > + D 7 8 , 1 }   #   c Q L L L l m Q C Q Q c ^ #     )   & &   &   = & = , # > >   )     ^ { > 3.  ",
", ~ V t.V U B > ] + b ] 1 # 1 #   $ %   $ %     # # c L L L l m Q Q Q c         )     & & & &       $   3       *     # 2 ( 2   ",
"0 V +.b V W B X Y 8 8 1 3 #   # $     #   * Z 4 > # c L L L l m Q Q Q c       #         [   3     $ $   & & 3     #   % / { % } ",
"u.&.m.T _ E U ..+.] # #   ' # #     % > ) @.v.w._ > ~ c L L l m Q Q c # % ) #   )       [   #     $ $ >   * ` *     [   . 3.| > ",
"T x.&.*.f ..&.*.*.+ ( # $ =   & $   _ > =.-.$.y.;.>.~ c L L l m Q Q c   $   #   %   & 2._   #     #         =       * ) * / + } ",
", b b , 0   + , #   . #       &   % _ ^ t ,.#.'.).!./ F c L l m Q c           # >   *   = &       [ >   ) )           % [ =   # ",
", + ]   =   # - z.r A.#       } , = (.| F _.(.^ G :.~.F c L l m Q c *     )     4       {.Z ].= . > ~ >         #   =     [ =   ",
"      #   # [.q B.C.k D.    # } t   (./ ;._._.2.G 4.^ F (.c Q m c   &           [ *   {.! 4 ].}.^ 2.|   # (   # 1 #     %     ) ",
"4 E.Z   %   F.k G.H.y _ $       2.^ (.^ _ 5.( c.3.( t F (.^ c c )           > [ * = i r.0 [ I.A b   ^ =   (   , } # > $       & ",
"  f.Z   =   1.i.0 s 9 , ]   # # = / (.t t 5._.^ 3.^ t G { e # [ &   =   $   {   = 4 . 0.q.-.6.0.0 ] {   = t > > $ # 1 1 $ ) %   ",
"        ) = # _ ] #     % #   } > G . F ^ 5.> ^ G e , , < u [ * )   )     $ 7 % = % . _ ; ! [ + _ = 7 ~ = < $ # > #   > $       ",
"  )     =     #   # > .       # # { F 2 ( 5._ 2.F { 2.~ + +   [ * ) * $ #   , , . 0 . > * * . ( % # } # a < # >   1       %     ",
"  * %         # 2.> > t } ,   , . , ^ 3.    _.2., 7 { . ;       ) )     # $ _ . , $ _   = $ ] _ # { e f < e #         ( ~ ( )   ",
") )             { (   > ^ t   ^ + ] > , , %   > ~ { +   & ,           =       #   # , > % _ . ^ 2./ e <   < <     #   > > ^ (   ",
"[         , ( ( _ / } , ~.e.( ( # $ # > ] > =   , b . = & } #   &       > > >       $ )   $ > < ( { / F     >           )       ",
")       % { ( ~ > F a > u { G <         ]   [     ^ ] =   %           # ( ^ ^             # %         &         -         '   ' ",
")                 ( t t N E E a     #       )                                     )     # # $       f.& &     & =   &       '   "};
