/* XPM */
static char * collec_xpm[] = {
"64 64 167 2",
"  	c #7BAA53",
". 	c #6C9352",
"+ 	c #729553",
"@ 	c #617E4C",
"# 	c #7BA452",
"$ 	c #7EA04E",
"% 	c #75AA55",
"& 	c #82AD5B",
"* 	c #82B35D",
"= 	c #7DAD5A",
"- 	c #84AD62",
"; 	c #7CA459",
"> 	c #75A252",
", 	c #749C53",
"' 	c #80A753",
") 	c #7EB056",
"! 	c #86BA65",
"~ 	c #6C944E",
"{ 	c #638C4D",
"] 	c #799D51",
"^ 	c #5E894B",
"/ 	c #548246",
"( 	c #679151",
"_ 	c #6E9B52",
": 	c #799D5B",
"< 	c #5A8447",
"[ 	c #7EB059",
"} 	c #72994F",
"| 	c #648546",
"1 	c #7C9D4E",
"2 	c #4F8145",
"3 	c #81A954",
"4 	c #86B262",
"5 	c #617D45",
"6 	c #789147",
"7 	c #6A8D4E",
"8 	c #74944E",
"9 	c #6A854D",
"0 	c #73945A",
"a 	c #63844B",
"b 	c #6C8D52",
"c 	c #5B7937",
"d 	c #547B43",
"e 	c #5C7B43",
"f 	c #457C40",
"g 	c #728D56",
"h 	c #879A79",
"i 	c #99A78F",
"j 	c #909B86",
"k 	c #4D793F",
"l 	c #49733E",
"m 	c #889A7A",
"n 	c #A1A69E",
"o 	c #8C9782",
"p 	c #798C6A",
"q 	c #000000",
"r 	c #5B854A",
"s 	c #4F7741",
"t 	c #627255",
"u 	c #5D6B53",
"v 	c #738169",
"w 	c #858E7C",
"x 	c #727F69",
"y 	c #738565",
"z 	c #5E7B49",
"A 	c #001835",
"B 	c #80B9FF",
"C 	c #758D4B",
"D 	c #537343",
"E 	c #538349",
"F 	c #4C7D42",
"G 	c #58654F",
"H 	c #596651",
"I 	c #54614B",
"J 	c #5C6D4F",
"K 	c #3E6838",
"L 	c #476A3C",
"M 	c #6A8552",
"N 	c #5A7643",
"O 	c #001938",
"P 	c #3E5832",
"Q 	c #4C6A3A",
"R 	c #003B82",
"S 	c #6D885A",
"T 	c #54753C",
"U 	c #4C7131",
"V 	c #718755",
"W 	c #577939",
"X 	c #4E752F",
"Y 	c #537335",
"Z 	c #5B7C3E",
"` 	c #8BB26B",
" .	c #90B46C",
"..	c #516D39",
"+.	c #4A6734",
"@.	c #5C7448",
"#.	c #89AD75",
"$.	c #82AA72",
"%.	c #71A565",
"&.	c #496931",
"*.	c #3D5E24",
"=.	c #425C2C",
"-.	c #6E9868",
";.	c #7BA26C",
">.	c #5E8755",
",.	c #71A15B",
"'.	c #6C8D63",
").	c #5B9054",
"!.	c #4E794D",
"~.	c #6C976B",
"{.	c #498943",
"].	c #92B07C",
"^.	c #8AAD6B",
"/.	c #67855B",
"(.	c #749662",
"_.	c #74B25B",
":.	c #6DA15A",
"<.	c #699563",
"[.	c #729D5D",
"}.	c #96AB81",
"|.	c #75916B",
"1.	c #5D7A54",
"2.	c #7E9F61",
"3.	c #648C52",
"4.	c #477D3F",
"5.	c #608A5A",
"6.	c #6B9B62",
"7.	c #849975",
"8.	c #85A569",
"9.	c #758D61",
"0.	c #0F7CFF",
"a.	c #76AF5D",
"b.	c #677B5B",
"c.	c #81A167",
"d.	c #628251",
"e.	c #6F9D5E",
"f.	c #5A994B",
"g.	c #89B165",
"h.	c #98B87C",
"i.	c #597635",
"j.	c #809A66",
"k.	c #4D6D2F",
"l.	c #586F45",
"m.	c #566F36",
"n.	c #4E663A",
"o.	c #445C32",
"p.	c #43602A",
"q.	c #819672",
"r.	c #6E8461",
"s.	c #7B916B",
"t.	c #6B7B5E",
"u.	c #6C8459",
"v.	c #35531E",
"w.	c #85A96F",
"x.	c #79A064",
"y.	c #3E572C",
"z.	c #5F9957",
"A.	c #9CAC88",
"B.	c #7B9868",
"C.	c #9FA39B",
"D.	c #999E94",
"E.	c #839D6A",
"F.	c #90B272",
"G.	c #89A272",
"H.	c #9BA492",
"I.	c #939B8A",
"J.	c #87A371",
"                    . + @ . . #     $     # #                                 % #   & * $ $ #   # # = * #   & - & # ;     # $   ",
"=       # %                               $ # *             > ,           $ $     #     $   # # $   #   # & #     # >   # # '   ",
")       $ #     $     )   = )       = &       !             ~ {     >   )     $ #   ) $ > # $ $ # # ' $ ' ] ]     ] , >         ",
"    '     # $ # $ # $ % $             & * #     $           ^ /     ( _   ) $ )     ) # #     # # $ #   ] # > # , :   # ~ { <   ",
")   #         # > $ $ $ # [ *   &       > }     }       #   < /     |     #   * & $ ) # #   # $ # # # # #     ] ] > $       ,   ",
"    =   *   $   $   %   $ [ [         1 #       ( # % $     > 2 ( > {   # $ =   # 1     $ $ # & & 3 # $ $ #   #   #   %       = ",
"  ) )   4 =         &     !       # # } _ #   , ~ $   1       / ,         1 ' $ 1 1   $ 1 > # #   , : 5 & 1 ' # # #   )         ",
"    ) & 4         & *   > >         # > _ $ # . ~ $   #                 &       6 , ( 1 $ $ } 7 8 ] 8 9 # 0 1 # # * 4       # > ",
"      & = > , ] % *   [ = >               # # ~ {   $       3 *       $ , $   1 1 ~ ,   ] 8 # a b ] + 7 a ] ]     ! #     # ] ] ",
"      *   # 0 0 #     ) > ) =       # #     $ ~ ^         = & *   # $ > . #   # ] 7     c } , d e + ~ a f g , , # # # #       # ",
"  # >       ] 0 #         h i j b   # # #       )       & & =       1 > ~ $ 1   } { 1 # 8 + d 9 k ~ { l b # | > $ # =           ",
"  + 0   % $   = 4 &     m n n j o p a 0                 &   q q     } 1 ~ # ] # 8 ~ + 1 $ ' d r d { ^ s ] . ] #     &     # > ; ",
"  > #   ( ( #   & &   t u v w x w y z : , + & & )   > >   q A B q     > 1     # C 1 8 8 # & > < D E F d 7 . # $ # # *   #   , : ",
"        ( ( $       + b G H I H G J a + . + & &     ( ( = q A B q   % # }     # 8 1 7 8 ] ' ] a d K l L a } #   $   # & #     # ",
"= &     > ^ $ $         ] . M M @ N a ( b + % #       E q O A B B q   # $ > > $ 8 1 7 ] 1 # ] 8 9 P Q D b } $ #       $ #       ",
"  &     > ^ #         & & &   =   &   , ] ] #   )     { q O A B B q       # } # 1 1 { ] 1 # # + 7 9 7 , ] ,   #   #           4 ",
"& &             )     & ) * =       #           &     q R O A B B B q S T U z # ] 8 ~ ] 1 $ # $ $ $     $       # $     > > > 4 ",
"= &     %       )       =   &     $ $ # & & =     %   q R O A B B B q V W X z Y Z + 8 1 3 # # #       # = * ` - > # } % }   _ % ",
"          ) $   ) %     )   # $   $ $ #   *  .&     q R R O A B B B B q _ D ..+.@.] # # # &     #   % > [ #.$.%._ > . ( } ^ ^   ",
"      $     $   $   = ( _       $   %       &       q R R O A B R B B q d &.*.*.=.. _ $ $ =       # > _ -.;.%._ >.,.~ { _ ^   ) ",
"      $   )   % ,   *   & &       ) >   &       % q R R R O A B R R B B q   0 , # # .   #     =   % , ^ < '.$.).!.~./ < % {.: # ",
"  = [   #       !       ].` ^.= _ > .           $ q R R R O A B R R B B q #   & - /.(.#       _ }   _.^ / :.%.^ 2 <.2 E _.{.[.= ",
"  ) )           [ 4 = }.! * ^.|.^ ^ _   # ,   $ q R R R R O A B R R R B B q - - - 1.(.2.      , r   _.< ^ ,.% 3.4.5.< E _.5.6.* ",
")   #       > ) [ = 7.|.0 = 8.9.b   ~     }   > q R 0.R R O A B R R R B B q ' : & ; : , # % $   ( _ a.{ _ 6._ 3.{._ < / _.>.<.  ",
"[   *   $   {   % = 0 b.S (.c.S . > 0     _ $ q R R 0.R R O A B R R R B B B q ; ] : + , ]     $ = 3.a.( ^ [.% 3.4.< ^ 2 { d # [ ",
")       # # (   % > ( _ # ) = , , = > >   _ # q R 0.0.R R O A B R R R R B B q > > % #   # % $ > , 3.= ( d.6.% >.F 2 . , < D = * ",
"*   * #   # _ > + , . % =   ] ] #   $   ] > q R R 0.0.0.R O A B R R R R B B B q   $ > .   # % # # _ _ 3.( e._ ( < a 3.~ , +   [ ",
"*     ' $ $ _ ~ , # .   = # > > > { F / / / q R R 0.0.0.R O A B R R R B B B B q ( > > E , >   , . # , 3.#   % . , { { ( >     = ",
"        )     $   # } >   . ( ^ 3./ d <   q R 0.R 0.0.0.R O A B R R R B B B B B q (   > >.^   ^ . # > _ ] >   > . 7 ,   & + &   ",
"& )     > # >     =       # > < ( { / <   q R 0.0.0.0.0.R O A B R R R B B B B B q / > > {.f.( (   # # # ] > = # , ( .   & 0 #   ",
"      > ( ^ ^           $ #           & q R R 0.0.0.0.0.R O A B R R B B B B B B B q r ] k { s <         $   [     { >           ",
"                # ) =               g.h.q R R R 0.0.0.0.R O O B R R B B B B B B B q r a L D T r   # #     = [         %         ",
"                $ = ) * $ # #   #     q R R R R 0.0.0.0.R O O B R R B B B B B B B B q + @ + . #     #     $ >                   ",
"            $           > $ #   # # # q R R R R R R R O O O A B B R R R R R B B B B q     #               $ $ *             # } ",
"  $ # % =   $ # #     $ # # % $ # #   q 0.0.0.0.R R R R R R R B R O O O O R O R R R O =     )     3 & &       !             _ > ",
"    ~ _ )     )     = $ #   $ # # # # q 0.0.0.R R R R R R R R B R O O O O O R O R R q # #             & &       %           ~ > ",
"    ^   # # ' 4 & $ &   # # # $ # ' ] q 0.0.R R 0.R R R R R R B R O O O O O R R O R q # # ) &   &       > ,     } #   %     ~ > ",
"{ > {   # $ )     1     $ # $ * 3 & ' ] q 0.R 0.R R R R R R A B R O O O O O O R O q     $ ) ) %       ] #       ~ #   $       > ",
"}         $ ' 1 1 1   $ 1 1 # $ 3 V 0 5 q R R 0.R R R R R R A B R O O O O O O R R q =     !         $ } _ #   , ~ $   #       > ",
"  %     & '     6 } 7 1 ] # Z i.5 V 5 5 j.q R R R R R R R 0.A B R O R R O O O O q & *   > %       $   > _ 1 $ . {   $ # $       ",
")     $ } $ % 1 1 ~ ,   # | 9 5 5 5 Y k.l.q R R R R R R 0.0.A B R O R R O O O O q *   * ) >             % # $ } {             * ",
"  $ >   ~     $ 1 { #   i.m.i...n.m.k.=.=.o.q R R R R R 0.0.A B R O R R O O O q       = > & =       #       $ ~ {           & * ",
"  $ 1 $ ~ # ]   , a 1 # 8 m.p.n.=.k.=.N g , q R R R R 0.0.0.A B R O R R R O O q #         h m p | =   $ $               3 * * ' ",
"  % $ 8 ~ # $ # 8 } , 1 1 $ | a 9 8 8 7 $ + q R R R R 0.0.0.A B R O R R R O O q * &     q.h y r.s.9.a 0     =           &       ",
"% $ % $ ]     ' C 1 8 8 > & } a 9 { { b ( + $ q R R 0.0.0.0.A B R O R R R O q   = &   t t t t.t r.t.z : + , & & )   , >   >     ",
"        ]     1 8 ] 7 8 ] # ~ | 9 z a a a > # q R R 0.0.0.0.A B R O R R R O q       + . G G I u H u @ + b + - & =   ( (   ^ ~   ",
"      > # # ] # 6 ] 7 ] 1 # 1 8 ~ e a a b ] > # q R 0.0.0.0.A B R O R R R q $ 1 $       , + M M @ T a b b ~   $     % <   / /   ",
"  $   # # > , # 1 1 { ] 1 # > + C 7 8 , 1 }   # q 0.0.0.0.0.A B R O R R R q #     )   & &   &   = & = , # > >   )     ^ { > 4.  ",
", ~ W u.W U z > ] + b ] 1 # 1 #   $ %   $ %     # q 0.0.0.0.A B R O R R q       )     & & & &       $   3       *     # 2 ( 2   ",
"0 W @.b W X z Y Z 8 8 1 3 #   # $     #   * ` 4 > q 0.0.0.0.A B R O R R q     #         [   3     $ $   & & 3     #   % / { % } ",
"v.*.n.T _ D U +.@.] # #   ' # #     % > ) #.w.x._ > q 0.0.0.A B R R R q % ) #   )       [   #     $ $ >   *  .*     [   . 4.| > ",
"T y.*.=.e +.*.=.=.+ ( # $ =   & $   _ > -.;.%.z.>.,.q 0.0.0.A B R R R q $   #   %   & 3._   #     #         =       * ) * / + } ",
", b b , 0   + , #   . #       &   % _ ^ r '.$.).!.~./ q 0.0.A B R R q         # >   *   = &       [ >   ) )           % [ =   # ",
", + ]   =   # - A.o B.#       } , = _.| E :._.^ F <.{.q 0.0.A B R R q     )     4       ].` ^.= . > ~ >         #   =     [ =   ",
"      #   # }.n C.D.j E.    # } r   _./ >.:.:.3.F 5.^ E q 0.A B R q &           [ *   ].! 4 ^.|.^ 3.|   # (   # 1 #     %     ) ",
"4 F.`   %   G.j H.I.w _ $       3.^ _.^ _ 6.( d.4.( r E q 0.A B R q         > [ * = h s.0 [ J.y b   ^ =   (   , } # > $       & ",
"  g.`   =   2.j.0 p 9 , ]   # # = / _.r r 6.:.^ 4.^ r F { q R B q   =   $   {   = 4 . b.r.;.7.b.0 ] {   = r > > $ # 1 1 $ ) %   ",
"        ) = # _ ] #     % #   } > F . E ^ 6.> ^ F d , , < s q q )   )     $ 7 % = % . _ ; ! [ + _ = 7 ~ = < $ # > #   > $       ",
"  )     =     #   # > .       # # { E 2 ( 6._ 3.E { 3.~ + +   [ * ) * $ #   , , . 0 . > * * . ( % # } # a < # >   1       %     ",
"  * %         # 3.> > r } ,   , . , ^ 4.    :.3., 7 { . ;       ) )     # $ _ . , $ _   = $ ] _ # { d e < d #         ( ~ ( )   ",
") )             { (   > ^ r   ^ + ] > , , %   > ~ { +   & ,           =       #   # , > % _ . ^ 3./ d <   < <     #   > > ^ (   ",
"[         , ( ( _ / } , {.f.( ( # $ # > ] > =   , b . = & } #   &       > > >       $ )   $ > < ( { / E     >           )       ",
")       % { ( ~ > E a > s { F <         ]   [     ^ ] =   %           # ( ^ ^             # %         &         -         '   ' ",
")                 ( r r L D D a     #       )                                     )     # # $       g.& &     & =   &       '   "};
