/* XPM */
static char * collec3_xpm[] = {
"64 64 166 2",
"  	c #7BAA53",
". 	c #6C9352",
"+ 	c #729553",
"@ 	c #617E4C",
"# 	c #7BA452",
"$ 	c #7EA04E",
"% 	c #75AA55",
"& 	c #82AD5B",
"* 	c #82B35D",
"= 	c #7DAD5A",
"- 	c #84AD62",
"; 	c #7CA459",
"> 	c #75A252",
", 	c #749C53",
"' 	c #80A753",
") 	c #7EB056",
"! 	c #86BA65",
"~ 	c #6C944E",
"{ 	c #638C4D",
"] 	c #799D51",
"^ 	c #5E894B",
"/ 	c #548246",
"( 	c #679151",
"_ 	c #6E9B52",
": 	c #799D5B",
"< 	c #5A8447",
"[ 	c #7EB059",
"} 	c #72994F",
"| 	c #648546",
"1 	c #7C9D4E",
"2 	c #4F8145",
"3 	c #81A954",
"4 	c #86B262",
"5 	c #617D45",
"6 	c #789147",
"7 	c #6A8D4E",
"8 	c #74944E",
"9 	c #6A854D",
"0 	c #73945A",
"a 	c #63844B",
"b 	c #6C8D52",
"c 	c #5B7937",
"d 	c #547B43",
"e 	c #5C7B43",
"f 	c #457C40",
"g 	c #728D56",
"h 	c #879A79",
"i 	c #99A78F",
"j 	c #909B86",
"k 	c #000000",
"l 	c #4D793F",
"m 	c #49733E",
"n 	c #889A7A",
"o 	c #A1A69E",
"p 	c #8C9782",
"q 	c #798C6A",
"r 	c #001835",
"s 	c #80B9FF",
"t 	c #5B854A",
"u 	c #4F7741",
"v 	c #627255",
"w 	c #5D6B53",
"x 	c #738169",
"y 	c #858E7C",
"z 	c #727F69",
"A 	c #738565",
"B 	c #5E7B49",
"C 	c #0F7CFF",
"D 	c #758D4B",
"E 	c #537343",
"F 	c #538349",
"G 	c #4C7D42",
"H 	c #58654F",
"I 	c #596651",
"J 	c #54614B",
"K 	c #5C6D4F",
"L 	c #001938",
"M 	c #3E6838",
"N 	c #476A3C",
"O 	c #6A8552",
"P 	c #5A7643",
"Q 	c #3E5832",
"R 	c #4C6A3A",
"S 	c #003B82",
"T 	c #6D885A",
"U 	c #54753C",
"V 	c #4C7131",
"W 	c #577939",
"X 	c #4E752F",
"Y 	c #537335",
"Z 	c #5B7C3E",
"` 	c #8BB26B",
" .	c #90B46C",
"..	c #516D39",
"+.	c #4A6734",
"@.	c #5C7448",
"#.	c #89AD75",
"$.	c #82AA72",
"%.	c #71A565",
"&.	c #496931",
"*.	c #3D5E24",
"=.	c #425C2C",
"-.	c #6E9868",
";.	c #7BA26C",
">.	c #5E8755",
",.	c #71A15B",
"'.	c #6C8D63",
").	c #5B9054",
"!.	c #4E794D",
"~.	c #6C976B",
"{.	c #498943",
"].	c #92B07C",
"^.	c #8AAD6B",
"/.	c #67855B",
"(.	c #749662",
"_.	c #74B25B",
":.	c #6DA15A",
"<.	c #699563",
"[.	c #729D5D",
"}.	c #96AB81",
"|.	c #75916B",
"1.	c #5D7A54",
"2.	c #7E9F61",
"3.	c #648C52",
"4.	c #477D3F",
"5.	c #608A5A",
"6.	c #6B9B62",
"7.	c #849975",
"8.	c #85A569",
"9.	c #758D61",
"0.	c #76AF5D",
"a.	c #677B5B",
"b.	c #81A167",
"c.	c #628251",
"d.	c #6F9D5E",
"e.	c #5A994B",
"f.	c #89B165",
"g.	c #718755",
"h.	c #597635",
"i.	c #809A66",
"j.	c #4D6D2F",
"k.	c #586F45",
"l.	c #566F36",
"m.	c #4E663A",
"n.	c #445C32",
"o.	c #43602A",
"p.	c #819672",
"q.	c #6E8461",
"r.	c #7B916B",
"s.	c #6B7B5E",
"t.	c #6C8459",
"u.	c #35531E",
"v.	c #85A96F",
"w.	c #79A064",
"x.	c #3E572C",
"y.	c #5F9957",
"z.	c #9CAC88",
"A.	c #7B9868",
"B.	c #9FA39B",
"C.	c #999E94",
"D.	c #839D6A",
"E.	c #90B272",
"F.	c #89A272",
"G.	c #9BA492",
"H.	c #939B8A",
"I.	c #87A371",
"                    . + @ . . #     $     # #                                 % #   & * $ $ #   # # = * #   & - & # ;     # $   ",
"=       # %                               $ # *             > ,           $ $     #     $   # # $   #   # & #     # >   # # '   ",
")       $ #     $     )   = )       = &       !             ~ {     >   )     $ #   ) $ > # $ $ # # ' $ ' ] ]     ] , >         ",
"    '     # $ # $ # $ % $             & * #     $           ^ /     ( _   ) $ )     ) # #     # # $ #   ] # > # , :   # ~ { <   ",
")   #         # > $ $ $ # [ *   &       > }     }       #   < /     |     #   * & $ ) # #   # $ # # # # #     ] ] > $       ,   ",
"    =   *   $   $   %   $ [ [         1 #       ( # % $     > 2 ( > {   # $ =   # 1     $ $ # & & 3 # $ $ #   #   #   %       = ",
"  ) )   4 =         &     !       # # } _ #   , ~ $   1       / ,         1 ' $ 1 1   $ 1 > # #   , : 5 & 1 ' # # #   )         ",
"    ) & 4         & *   > >         # > _ $ # . ~ $   #                 &       6 , ( 1 $ $ } 7 8 ] 8 9 # 0 1 # # * 4       # > ",
"      & = > , ] % *   [ = >               # # ~ {   $       3 *       $ , $   1 1 ~ ,   ] 8 # a b ] + 7 a ] ]     ! #     # ] ] ",
"      *   # 0 0 #     ) > ) =       # #     $ ~ ^         = & *   # $ > . #   # ] 7     c } , d e + ~ a f g , , # # # #       # ",
"  # >       ] 0 #         h i j b   # # #       )       & & k k     1 > ~ $ 1   } { 1 # 8 + d 9 l ~ { m b # | > $ # =           ",
"  + 0   % $   = 4 &     n o o j p q a 0                 & k r s k   } 1 ~ # ] # 8 ~ + 1 $ ' d t d { ^ u ] . ] #     &     # > ; ",
"  > #   ( ( #   & &   v w x y z y A B : , + & & )   > >   k r C k     > 1     # D 1 8 8 # & > < E F G d 7 . # $ # # *   #   , : ",
"        ( ( $       + b H I J I H K a + . + & &     ( ( k L r C s k % # }     # 8 1 7 8 ] ' ] a d M m N a } #   $   # & #     # ",
"= &     > ^ $ $         ] . O O @ P a ( b + % #       F k L r C s k   # $ > > $ 8 1 7 ] 1 # ] 8 9 Q R E b } $ #       $ #       ",
"  &     > ^ #         & & &   =   &   , ] ] #   )     k S L r C s s k     # } # 1 1 { ] 1 # # + 7 9 7 , ] ,   #   #           4 ",
"& &             )     & ) * =       #           &     k S L r C s s k T U V B # ] 8 ~ ] 1 $ # $ $ $     $       # $     > > > 4 ",
"= &     %       )       =   &     $ $ # & & =     % k S S L r C s s s k W X B Y Z + 8 1 3 # # #       # = * ` - > # } % }   _ % ",
"          ) $   ) %     )   # $   $ $ #   *  .&     k S S L r C S s s k _ E ..+.@.] # # # &     #   % > [ #.$.%._ > . ( } ^ ^   ",
"      $     $   $   = ( _       $   %       &     k S S S L r C S s s s k &.*.*.=.. _ $ $ =       # > _ -.;.%._ >.,.~ { _ ^   ) ",
"      $   )   % ,   *   & &       ) >   &       % k S S S L r C S S s s k   0 , # # .   #     =   % , ^ < '.$.).!.~./ < % {.: # ",
"  = [   #       !       ].` ^.= _ > .           k S S S S L r s S S s s s k   & - /.(.#       _ }   _.^ / :.%.^ 2 <.2 F _.{.[.= ",
"  ) )           [ 4 = }.! * ^.|.^ ^ _   # ,   $ k S S S S L r s S S s s s k - - - 1.(.2.      , t   _.< ^ ,.% 3.4.5.< F _.5.6.* ",
")   #       > ) [ = 7.|.0 = 8.9.b   ~     }   k S S S S S L r s S s s s s s k : & ; : , # % $   ( _ 0.{ _ 6._ 3.{._ < / _.>.<.  ",
"[   *   $   {   % = 0 a.T (.b.T . > 0     _ $ k S S S S S L r s S s S S s s k ; ] : + , ]     $ = 3.0.( ^ [.% 3.4.< ^ 2 { d # [ ",
")       # # (   % > ( _ # ) = , , = > >   _ k S S S S C S L r s S s S S s s s k > % #   # % $ > , 3.= ( c.6.% >.G 2 . , < E = * ",
"*   * #   # _ > + , . % =   ] ] #   $   ] > k S S S S C S L r C S s S s s s s k   $ > .   # % # # _ _ 3.( d._ ( < a 3.~ , +   [ ",
"*     ' $ $ _ ~ , # .   = # > > > { G / / k S S S S S C S L r C S s S s s s s s k > > F , >   , . # , 3.#   % . , { { ( >     = ",
"        )     $   # } >   . ( ^ 3./ d <   k S C C S S C S L r s s s S s s s s s k (   > >.^   ^ . # > _ ] >   > . 7 ,   & + &   ",
"& )     > # >     =       # > < ( { / < k S S C C C S C S L r s s S s s s s s s s k > > {.e.( (   # # # ] > = # , ( .   & 0 #   ",
"      > ( ^ ^           $ #           & k S S S C C C C S L L s s S s s S S S S s k t ] l { u <         $   [     { >           ",
"                # ) =               f.k S S S S C C C C S L L s s S S S S S S s s s L a N E U t   # #     = [         %         ",
"                $ = ) * $ # #   #     k S S C C C C S L L L r s s s S S S S s s s s k + @ + . #     #     $ >                   ",
"            $           > $ #   # # # k S S S C C S S L L L L s s s s s s s s s s s k     #               $ $ *             # } ",
"  $ # % =   $ # #     $ # # % $ # #   k C C C S S C C S S S S s S L L S S L S L S S k =     )     3 & &       !             _ > ",
"    ~ _ )     )     = $ #   $ # # # # k C C S S C C C S S S S s S L L S S L S S L S k # #             & &       %           ~ > ",
"    ^   # # ' 4 & $ &   # # # $ # ' ] ' k C S C S C S S S S r s S L L S S S L S L k 1 # # ) &   &       > ,     } #   %     ~ > ",
"{ > {   # $ )     1     $ # $ * 3 & ' ] k S S C S C S S S S r s S L L L S S L S S k     $ ) ) %       ] #       ~ #   $       > ",
"}         $ ' 1 1 1   $ 1 1 # $ 3 g.0 5 3 k S S C S S S S C r s S L L L S S L L k   =     !         $ } _ #   , ~ $   #       > ",
"  %     & '     6 } 7 1 ] # Z h.5 g.5 5 i.k S S C S S S C C r s S L L L S S L L k & *   > %       $   > _ 1 $ . {   $ # $       ",
")     $ } $ % 1 1 ~ ,   # | 9 5 5 5 Y j.k.@.k S C S S S C C r s S L L L S S S k   *   * ) >             % # $ } {             * ",
"  $ >   ~     $ 1 { #   h.l.h...m.l.j.=.=.n.k S C S S C C C r s S L L L S L L k       = > & =       #       $ ~ {           & * ",
"  $ 1 $ ~ # ]   , a 1 # 8 l.o.m.=.j.=.P g , k S S S S C C C r s S L L L S L L k #         h n q | =   $ $               3 * * ' ",
"  % $ 8 ~ # $ # 8 } , 1 1 $ | a 9 8 8 7 $ + ] k S S C C C C r s S L L L S L k   * &     p.h A q.r.9.a 0     =           &       ",
"% $ % $ ]     ' D 1 8 8 > & } a 9 { { b ( + $ k S S C C C C r s S L L L S L k   = &   v v v s.v q.s.B : + , & & )   , >   >     ",
"        ]     1 8 ] 7 8 ] # ~ | 9 B a a a > #   k S C C C C r C S L L L S k #       + . H H J w I w @ + b + - & =   ( (   ^ ~   ",
"      > # # ] # 6 ] 7 ] 1 # 1 8 ~ e a a b ] > # k C C C C C r C S L L L S k $ 1 $       , + O O @ U a b b ~   $     % <   / /   ",
"  $   # # > , # 1 1 { ] 1 # > + D 7 8 , 1 }   #   k C C C C r C S L L L k ^ #     )   & &   &   = & = , # > >   )     ^ { > 4.  ",
", ~ W t.W V B > ] + b ] 1 # 1 #   $ %   $ %     # k C C C C r C S L L L k       )     & & & &       $   3       *     # 2 ( 2   ",
"0 W @.b W X B Y Z 8 8 1 3 #   # $     #   * ` 4 > # k C C C r C S S S L       #         [   3     $ $   & & 3     #   % / { % } ",
"u.*.m.U _ E V +.@.] # #   ' # #     % > ) #.v.w._ > k C C C r C S S S k % ) #   )       [   #     $ $ >   *  .*     [   . 4.| > ",
"U x.*.=.e +.*.=.=.+ ( # $ =   & $   _ > -.;.%.y.>.,.~ k C C r C S S k   $   #   %   & 3._   #     #         =       * ) * / + } ",
", b b , 0   + , #   . #       &   % _ ^ t '.$.).!.~./ k C C L C S S k         # >   *   = &       [ >   ) )           % [ =   # ",
", + ]   =   # - z.p A.#       } , = _.| F :._.^ G <.{.F k C L C S k *     )     4       ].` ^.= . > ~ >         #   =     [ =   ",
"      #   # }.o B.C.j D.    # } t   _./ >.:.:.3.G 5.^ F k C L C S k &           [ *   ].! 4 ^.|.^ 3.|   # (   # 1 #     %     ) ",
"4 E.`   %   F.j G.H.y _ $       3.^ _.^ _ 6.( c.4.( t F _.k S C k           > [ * = h r.0 [ I.A b   ^ =   (   , } # > $       & ",
"  f.`   =   2.i.0 q 9 , ]   # # = / _.t t 6.:.^ 4.^ t G { d k k &   =   $   {   = 4 . a.q.;.7.a.0 ] {   = t > > $ # 1 1 $ ) %   ",
"        ) = # _ ] #     % #   } > G . F ^ 6.> ^ G d , , < u [ * )   )     $ 7 % = % . _ ; ! [ + _ = 7 ~ = < $ # > #   > $       ",
"  )     =     #   # > .       # # { F 2 ( 6._ 3.F { 3.~ + +   [ * ) * $ #   , , . 0 . > * * . ( % # } # a < # >   1       %     ",
"  * %         # 3.> > t } ,   , . , ^ 4.    :.3., 7 { . ;       ) )     # $ _ . , $ _   = $ ] _ # { d e < d #         ( ~ ( )   ",
") )             { (   > ^ t   ^ + ] > , , %   > ~ { +   & ,           =       #   # , > % _ . ^ 3./ d <   < <     #   > > ^ (   ",
"[         , ( ( _ / } , {.e.( ( # $ # > ] > =   , b . = & } #   &       > > >       $ )   $ > < ( { / F     >           )       ",
")       % { ( ~ > F a > u { G <         ]   [     ^ ] =   %           # ( ^ ^             # %         &         -         '   ' ",
")                 ( t t N E E a     #       )                                     )     # # $       f.& &     & =   &       '   "};
