/* XPM */
static char * door_xpm[] = {
"64 64 235 2",
"  	c #7BAA53",
". 	c #6C9352",
"+ 	c #729553",
"@ 	c #617E4C",
"# 	c #7BA452",
"$ 	c #7EA04E",
"% 	c #75AA55",
"& 	c #82AD5B",
"* 	c #82B35D",
"= 	c #7DAD5A",
"- 	c #84AD62",
"; 	c #7CA459",
"> 	c #75A252",
", 	c #749C53",
"' 	c #80A753",
") 	c #7EB056",
"! 	c #86BA65",
"~ 	c #6C944E",
"{ 	c #638C4D",
"] 	c #6D82BB",
"^ 	c #799D51",
"/ 	c #5E894B",
"( 	c #5663B9",
"_ 	c #679151",
": 	c #6E9B52",
"< 	c #799D5B",
"[ 	c #5A8447",
"} 	c #7EB059",
"| 	c #72994F",
"1 	c #648546",
"2 	c #7C9D4E",
"3 	c #5362B9",
"4 	c #81A954",
"5 	c #86B262",
"6 	c #548246",
"7 	c #6977BB",
"8 	c #617D45",
"9 	c #789147",
"0 	c #6A8D4E",
"a 	c #74944E",
"b 	c #6A854D",
"c 	c #73945A",
"d 	c #6D7DBB",
"e 	c #63844B",
"f 	c #6C8D52",
"g 	c #6C78BB",
"h 	c #5B7937",
"i 	c #547B43",
"j 	c #5C7B43",
"k 	c #457C40",
"l 	c #728D56",
"m 	c #879A79",
"n 	c #99A78F",
"o 	c #909B86",
"p 	c #4D793F",
"q 	c #49733E",
"r 	c #889A7A",
"s 	c #A1A69E",
"t 	c #8C9782",
"u 	c #798C6A",
"v 	c #5B854A",
"w 	c #4F7741",
"x 	c #627255",
"y 	c #5D6B53",
"z 	c #738169",
"A 	c #858E7C",
"B 	c #727F69",
"C 	c #738565",
"D 	c #5E7B49",
"E 	c #580AFF",
"F 	c #758D4B",
"G 	c #537343",
"H 	c #538349",
"I 	c #4C7D42",
"J 	c #58654F",
"K 	c #594DBB",
"L 	c #5649BA",
"M 	c #596651",
"N 	c #5C6D4F",
"O 	c #9A2FFF",
"P 	c #3012B4",
"Q 	c #3E6838",
"R 	c #5057B8",
"S 	c #476A3C",
"T 	c #6470BB",
"U 	c #6265BB",
"V 	c #5A7643",
"W 	c #4B42B6",
"X 	c #4C6A3A",
"Y 	c #6E84BD",
"Z 	c #5B7792",
"` 	c #4B5891",
" .	c #48568F",
"..	c #6F7ABA",
"+.	c #435B90",
"@.	c #485190",
"#.	c #8BB26B",
"$.	c #3C578F",
"%.	c #36428B",
"&.	c #323A8B",
"*.	c #89AD75",
"=.	c #82AA72",
"-.	c #71A565",
";.	c #5D7994",
">.	c #526292",
",.	c #333E8A",
"'.	c #373D8C",
").	c #39408C",
"!.	c #526792",
"~.	c #6E9868",
"{.	c #7BA26C",
"].	c #5E8755",
"^.	c #71A15B",
"/.	c #587793",
"(.	c #5D7B93",
"_.	c #576D92",
":.	c #566794",
"<.	c #566892",
"[.	c #5B7392",
"}.	c #6C8D63",
"|.	c #5B9054",
"1.	c #4E794D",
"2.	c #6C976B",
"3.	c #498943",
"4.	c #92B07C",
"5.	c #8AAD6B",
"6.	c #4F5D94",
"7.	c #576996",
"8.	c #74B25B",
"9.	c #6DA15A",
"0.	c #4F8145",
"a.	c #699563",
"b.	c #729D5D",
"c.	c #96AB81",
"d.	c #75916B",
"e.	c #5D7091",
"f.	c #587192",
"g.	c #648C52",
"h.	c #477D3F",
"i.	c #608A5A",
"j.	c #6B9B62",
"k.	c #849975",
"l.	c #85A569",
"m.	c #758D61",
"n.	c #566B92",
"o.	c #5C6E91",
"p.	c #90B272",
"q.	c #607994",
"r.	c #5F7592",
"s.	c #5A6E94",
"t.	c #76AF5D",
"u.	c #677B5B",
"v.	c #6D885A",
"w.	c #749662",
"x.	c #81A167",
"y.	c #536C92",
"z.	c #5A6E92",
"A.	c #89B165",
"B.	c #5C7394",
"C.	c #628251",
"D.	c #6F9D5E",
"E.	c #4C6291",
"F.	c #3E578F",
"G.	c #425B90",
"H.	c #43568F",
"I.	c #475C90",
"J.	c #495E93",
"K.	c #496091",
"L.	c #3D608F",
"M.	c #476B91",
"N.	c #4F6592",
"O.	c #5B68BA",
"P.	c #ACACAC",
"Q.	c #3F548F",
"R.	c #40538F",
"S.	c #B4B4B4",
"T.	c #4C5C91",
"U.	c #3C4A8E",
"V.	c #42508F",
"W.	c #43528E",
"X.	c #6982BC",
"Y.	c #A2A3A2",
"Z.	c #91948E",
"`.	c #7C8775",
" +	c #706DA8",
".+	c #959894",
"++	c #939492",
"@+	c #4B5B92",
"#+	c #868882",
"$+	c #8B8E8A",
"%+	c #81847E",
"&+	c #6C7569",
"*+	c #6C8459",
"=+	c #555E93",
"-+	c #5B7C3E",
";+	c #597635",
">+	c #4B5790",
",+	c #638297",
"'+	c #607D95",
")+	c #576791",
"!+	c #566F36",
"~+	c #516D39",
"{+	c #43602A",
"]+	c #4E663A",
"^+	c #425C2C",
"/+	c #6E8461",
"(+	c #7B916B",
"_+	c #6B7B5E",
":+	c #54614B",
"<+	c #5F7693",
"[+	c #6A8552",
"}+	c #54753C",
"|+	c #577939",
"1+	c #4C7131",
"2+	c #5C7448",
"3+	c #4E752F",
"4+	c #537335",
"5+	c #35531E",
"6+	c #3D5E24",
"7+	c #4A6734",
"8+	c #90B46C",
"9+	c #3E572C",
"0+	c #5F9957",
"a+	c #9CAC88",
"b+	c #7B9868",
"c+	c #9FA39B",
"d+	c #8178CD",
"e+	c #839D6A",
"f+	c #89A272",
"g+	c #827DCD",
"h+	c #939B8A",
"i+	c #87A371",
"j+	c #7E9F61",
"k+	c #7075BF",
"l+	c #5A994B",
"                    . + @ . . #     $     # #                                 % #   & * $ $ #   # # = * #   & - & # ;     # $   ",
"=       # %                               $ # *             > ,           $ $     #     $   # # $   #   # & #     # >   # # '   ",
")       $ #     $     )   = )       = &       !             ~ { ]   >   )     $ #   ) $ > # $ $ # # ' $ ' ^ ^     ^ , >         ",
"    '     # $ # $ # $ % $             & * #     $           / ( ]   _ :   ) $ )     ) # #     # # $ #   ^ # > # , <   # ~ { [   ",
")   #         # > $ $ $ # } *   &       > |     |       #   [ ( ] ] 1     #   * & $ ) # #   # $ # # # # #     ^ ^ > $       ,   ",
"    =   *   $   $   %   $ } }         2 #       _ # % $     > 3 _ > {   # $ =   # 2     $ $ # & & 4 # $ $ #   #   #   %       = ",
"  ) )   5 =         &     !       # # | : #   , ~ $   2       6 7         2 ' $ 2 2   $ 2 > # #   , < 8 & 2 ' # # #   )         ",
"    ) & 5         & *   > >         # > : $ # . ~ $   #         ]       &       9 , _ 2 $ $ | 0 a ^ a b # c 2 d d * 5       # > ",
"      & = > , ^ % *   } = >               # # ~ {   $       4 * ]     $ , $   2 2 ~ ,   ^ a # e f ^ + 0 e ^ g ] ] ! #     # ^ ^ ",
"      *   # c c #     ) > ) =       # #     $ ~ /         = & *   # $ > . #   # ^ 0     h | , i j + ~ e k l 7 7 # # # #       # ",
"  # >       ^ c #         m n o f   # # #       )       & & =   ]   2 > ~ $ 2   | { 2 # a + i b p ~ { q f d 1 > $ # =           ",
"  + c   % $   = 5 &     r s s o t u e c                 &       ]   | 2 ~ # ^ # a ~ + 2 $ ' i v i { / w g . ^ #     &     # > ; ",
"  > #   _ _ #   & &   x y z A B A C D < , + & & )   > E E E E E E E E E E     # F 2 a a # & > [ G H I i 0 . # $ # # *   #   , < ",
"        _ _ $       + f J K L M J N e + . + & & E E E E O E E O E E P P E E E E a 2 0 a ^ ' ^ e i Q R S e | #   $   # & #     # ",
"= &     > / $ $         ^ T U U @ V e _ f + E E P P P E E E E E E O O E P E P P E E 0 ^ 2 # ^ a b W X G f | $ #       $ #       ",
"  &     > / #         & & &   Y   &   , ^ ^ P P E E E P P P E P E E E O O P E E E P { ^ 2 # # + 0 b 0 , ^ ,   #   #           5 ",
"& &             )     & ) * =   ]   #     E E E P P P P P P P Z `  .P E O E P P E E E ^ 2 $ # ..$ $     $       # $     > > > 5 ",
"= &     %       )       =   &     ..$ # E E E P P P P Z +.P P P P P @.P E O P P P P E E 4 # # #       # = * #.- > # | % |   : % ",
"          ) $   ) %     )   # $   $ $ E P E P P P P P P P $.P %.&.P P P P O E E @.P P E E &     #   % > } *.=.-.: > . _ | / /   ",
"      $     $   $   = _ :       $   P P E P P P P P P ;.* +.>.,.&.'.%.P P E E E ).!.P P E E       # > : ~.{.-.: ].^.~ { : /   ) ",
"      $   )   % ,   *   & &       E E E P P P P /.Z (.  (.;.% ^ _.!.>.:.<.P E O E [.P P P E E =   % , / [ }.=.|.1.2.6 [ % 3.< # ",
"  = }   #       !       4.#.5.= : E E P Z P Z Z $   ;.Z Z } Z Z + , , Z ;.P P E E 6.7.P P P E : |   8./ 6 9.-./ 0.a.0.H 8.3.b.= ",
"  ) )           } 5 = c.! * 5.d./ P P P P P Z e.f.e.# /.  =   ) Z Z     # Z P E O P 7.P P P P , v   8.[ / ^.% g.h.i.[ H 8.i.j.* ",
")   #       > ) } = k.d.c = l.m.E P P P Z n.Z f.o.f.> $       * - p.#.  > q.r.s.E P s._.P P P E _ : t.{ : j.: g.3.: [ 6 8.].a.  ",
"}   *   $   {   % = c u.v.w.x.v.E P P P Z y.$ z.> # ^ 2           A.#.  ) /.[.B.P E <._.z.P P E = g.t._ / b.% g.h.[ / 0.{ i # } ",
")       # # _   % > _ : # ) = , P P P f.Z y.# > # $ > # #               ) ) [.f.P E [.Z [.P P E , g.= _ C.j.% ].I 0.. , [ G = * ",
"*   * #   # : > + , . % =   ^ E P Z e.Z z.f.O % Z n.              =     = %     Z E f.!.Z P P E E : : g._ D.: _ [ e g.~ , +   } ",
"*     ' $ $ : ~ , # .   = # > E P E.F.+.+.O           ~ . _       *             _ > f.G._.f.Z P E # , g.#   % . , { { _ >     = ",
"        )     $   # | >   . _ E P +.H.I.O O P         > > / ~   ) )             { _ Z > J.K.Z P E # > : ^ >   > . 0 ,   & + &   ",
"& )     > # >     =       # > E P E.+.E O P >           =       )         | _ _ . 6 > f.L.M.N.P E # # # ^ > = # , _ .   & c #   ",
"      > _ O.O.          $ #   P P E E O P P     P.        ' '   )       > { _ _ > [ v z.Q.E.R.P E       $   }     { >           ",
"        ]   ] ] d ) Y   ]   ] E P E O P P Z   P.S.P.s #     4   ) %               _ v T.U.V.W.E E # #     = }         X.]       ",
"                $ = ) * $ # # E [.E O P Z [.P.P.Y.Z.`.& % $ $                       . <.` <.!.P E   # ]   ..> ] ] ] ]   ] ]     ",
"            $           > $ # E E O P P Z  +Z..+++++C     $     )       $               Z [.Z E E         $ $ *             # | ",
"  $ # % =   $ # #     $ # # % E P O P P [.@+#+$+%+&+C.>       %   )     # #     #     ;.Z P P E O 4 & &       !             : > ",
"    ~ : )     )     = $ #   $ E E P P P [.z.f *+j c     6 6 v             # $ $ # # e.[.[.P P E E     & &       %           ~ > ",
"    /   # # ' 5 & $ &   # # # E E P P P r.Z # z., # #       |   )   $       $   # 2 2 [.[.P P E E       > ,     | #   %     ~ > ",
"{ > {   # $ )     2     $ # $ E E O P P P [.[.  # #           ) )       = ;.    # Z Z Z P P P O E     ^ #       ~ #   $       > ",
"|         $ ' 2 2 2   $ 2 2 # E E =+P P P z.# [.$ #   =       =   ) =   5 Z     Z   ;.Z P P E E E   $ | : #   , ~ $   #       > ",
"  %     & '     9 | 0 2 ^ # -+;+E E >+P P >.$ [.# * ,+    # > ;     * & 5   Z /.  q.'+P P P E E   $   > : 2 $ . {   $ # $       ",
")     $ | $ % 2 2 ~ ,   # 1 b 8 E O P P P P )+'   !   #   # , ^       = Z B._.:.Z '+P P E O O E         % # $ | {             * ",
"  $ >   ~     $ 2 { #   ;+!+;+~+E E E P P P <.z.$ ' Z       [.Z   Z Z '+Z [.:.<.Z P P E O E E E     #       $ ~ {           & * ",
"  $ 2 $ ~ # ^   , e 2 # a !+{+]+^+E E O P P _.[.o.[.q.Z Z %   Z E O O P P P E P E E O E E P P u 1 =   $ $               4 * * ' ",
"  % $ a ~ # $ # a | , 2 2 $ 1 e b E E E E P P e.r.Z q.  Z e.# >   P P E E O O O O O E E P E E /+(+m.e c     =           &       ",
"% $ % $ ^     ' F 2 a a > & | e b E E E P E P P [.Z q.Z   [.z._.  > P P P E P E E E P P P E E x /+_+D < + , & & )   , >   >     ",
"        ^     2 a ^ 0 a ^ # ~ 1 b D E E E P E P P P [.q.[.Z [.Z Z Z Z Z P P P P P P E P E E :+y M y @ + f + - & =   _ _   / ~   ",
"      > # # ^ # 9 ^ 0 ^ 2 # 2 a ~ j e E E E E E P P P e.P Z Z Z <+q.Z Z _.K.P P E E P E E + U [+@ }+e f f ~   $     % [   6 6   ",
"  $   # # > , # 2 2 { ^ 2 # > + F 0 a , E E P P E E E P P P P '+P q.Z P P P E E E P E E &   & ] = & = , # > >   )     / { > h.  ",
", ~ |+*+|+1+D > ^ + f ^ 2 # 2 #   $ %   $ E E E P P P E E E P P P P P E E E E E E E E & & & & ] ]   $   4       *     # 0._ 0.  ",
"c |+2+f |+3+D 4+-+a a 2 4 # ] # $     #   * P P E E E E P P E E E E E E E E P P P P     }   4     $ $   & & 4     #   % 6 { % | ",
"5+6+]+}+: G 1+7+2+^ # #   ' # #     % > ) *.E P P P P E E E P P Z P P P P P P P E E     }   #     $ $ >   * 8+*     }   . h.1 > ",
"}+9+6+^+j 7+6+^+^++ _ # ..=   & $   : > ~.{.-.0+E E E P P E E E E P P P E E E E %   & g.:   #     #         =       * ) * 6 + | ",
", f f , c   + , #   . d       &   % : / v }.=.|.1.2.6 E E P E P E E E E E     # >   *   = &       } >   ) )           % } =   # ",
", + ^   =   # - a+t b+#       | , = 8.1 H 9.8./ I a.3.H 8.[ b.=     *     )     5       4.#.5.= . > ~ >         #   =     } =   ",
"      #   # c.s c+d+o e+    # | v   8.6 ].9.9.g.I i./ H 8.].j.*     &           } *   4.! 5 5.d./ g.1   # _   # 2 #     %     ) ",
"5 p.#.  %   f+o g+h+A : $       g./ 8./ : j._ C.h._ v H 8./ a.= )           > } * = m (+c } i+C f   / =   _   , | # > $       & ",
"  A.#.  =   j+k+c u b , ^   # # = 6 8.v v j.9./ h./ v I { i # } &   =   $   {   = 5 . u./+{.k.u.c ^ {   = v > > $ # 2 2 $ ) %   ",
"        ) = d : ^ #     % #   | > I . H / j.> / I i , , [ w } * )   )     $ 0 % = % . : ; ! } + : = 0 ~ = [ $ # > #   > $       ",
"  )   ] Y ]   #   # > .       # # { H 0._ j.: g.H { g.~ + +   } * ) * $ #   , , . c . > * * . _ % # | # e [ # >   2       %     ",
"  * % ] ] ]   # g.> > v | ,   , . , / h.    9.g., 0 { . ;       ) )     # $ : . , $ :   = $ ^ : # { i j [ i #         _ ~ _ )   ",
") )   ] ]       { _   > / v   / + ^ > , , %   > ~ { +   & ,           =       #   # , > % : . / g.6 i [   [ [     #   > > / _   ",
"}   ]     , _ _ : 6 | , 3.l+_ _ # $ # > ^ > =   , f . = & | #   &       > > >       $ )   $ > [ _ { 6 H     >           )       ",
")       % { _ ~ > H e > w { I [         ^   }     / ^ =   %           # _ / /             # %         &         -         '   ' ",
")                 _ v v S G G e     #       )                                     )     # # $       A.& &     & =   &       '   "};
