/* XPM */
static char * enemyy_xpm[] = {
"64 64 198 2",
"  	c #7BAA53",
". 	c #6C9352",
"+ 	c #729553",
"@ 	c #617E4C",
"# 	c #7BA452",
"$ 	c #7EA04E",
"% 	c #75AA55",
"& 	c #82AD5B",
"* 	c #82B35D",
"= 	c #7DAD5A",
"- 	c #84AD62",
"; 	c #7CA459",
"> 	c #75A252",
", 	c #749C53",
"' 	c #80A753",
") 	c #7EB056",
"! 	c #86BA65",
"~ 	c #6C944E",
"{ 	c #638C4D",
"] 	c #799D51",
"^ 	c #5E894B",
"/ 	c #548246",
"( 	c #679151",
"_ 	c #6E9B52",
": 	c #799D5B",
"< 	c #5A8447",
"[ 	c #7EB059",
"} 	c #72994F",
"| 	c #648546",
"1 	c #7C9D4E",
"2 	c #4F8145",
"3 	c #81A954",
"4 	c #86B262",
"5 	c #617D45",
"6 	c #789147",
"7 	c #6A8D4E",
"8 	c #74944E",
"9 	c #6A854D",
"0 	c #73945A",
"a 	c #63844B",
"b 	c #6C8D52",
"c 	c #5B7937",
"d 	c #547B43",
"e 	c #5C7B43",
"f 	c #457C40",
"g 	c #728D56",
"h 	c #879A79",
"i 	c #99A78F",
"j 	c #909B86",
"k 	c #E34C70",
"l 	c #FD9D93",
"m 	c #4D793F",
"n 	c #49733E",
"o 	c #889A7A",
"p 	c #A1A69E",
"q 	c #8C9782",
"r 	c #798C6A",
"s 	c #F6387C",
"t 	c #FDB4A9",
"u 	c #5B854A",
"v 	c #4F7741",
"w 	c #627255",
"x 	c #5D6B53",
"y 	c #738169",
"z 	c #858E7C",
"A 	c #727F69",
"B 	c #738565",
"C 	c #5E7B49",
"D 	c #FBF9F7",
"E 	c #758D4B",
"F 	c #537343",
"G 	c #538349",
"H 	c #4C7D42",
"I 	c #58654F",
"J 	c #596651",
"K 	c #54614B",
"L 	c #5C6D4F",
"M 	c #B50838",
"N 	c #FB8D8E",
"O 	c #A3032E",
"P 	c #3E6838",
"Q 	c #476A3C",
"R 	c #6A8552",
"S 	c #5A7643",
"T 	c #3E5832",
"U 	c #4C6A3A",
"V 	c #F9DECA",
"W 	c #DB2D67",
"X 	c #90062C",
"Y 	c #FBE4EA",
"Z 	c #F7907F",
"` 	c #F57082",
" .	c #CD174E",
"..	c #537335",
"+.	c #5B7C3E",
"@.	c #8BB26B",
"#.	c #90B46C",
"$.	c #516D39",
"%.	c #4A6734",
"&.	c #5C7448",
"*.	c #89AD75",
"=.	c #82AA72",
"-.	c #71A565",
";.	c #496931",
">.	c #3D5E24",
",.	c #425C2C",
"'.	c #6E9868",
").	c #7BA26C",
"!.	c #5E8755",
"~.	c #71A15B",
"{.	c #6C8D63",
"].	c #5B9054",
"^.	c #4E794D",
"/.	c #6C976B",
"(.	c #498943",
"_.	c #92B07C",
":.	c #8AAD6B",
"<.	c #67855B",
"[.	c #749662",
"}.	c #74B25B",
"|.	c #6DA15A",
"1.	c #699563",
"2.	c #729D5D",
"3.	c #96AB81",
"4.	c #75916B",
"5.	c #5D7A54",
"6.	c #7E9F61",
"7.	c #648C52",
"8.	c #477D3F",
"9.	c #608A5A",
"0.	c #6B9B62",
"a.	c #849975",
"b.	c #85A569",
"c.	c #758D61",
"d.	c #E0858B",
"e.	c #76AF5D",
"f.	c #677B5B",
"g.	c #6D885A",
"h.	c #81A167",
"i.	c #0E1619",
"j.	c #2A0546",
"k.	c #56016F",
"l.	c #4C006C",
"m.	c #E3E9EC",
"n.	c #56017B",
"o.	c #360933",
"p.	c #1D0326",
"q.	c #628251",
"r.	c #D148A9",
"s.	c #3D0158",
"t.	c #6F9D5E",
"u.	c #0F0509",
"v.	c #5A994B",
"w.	c #000000",
"x.	c #89B165",
"y.	c #98B87C",
"z.	c #ACACAC",
"A.	c #54753C",
"B.	c #9A9C98",
"C.	c #91948E",
"D.	c #868882",
"E.	c #6C001F",
"F.	c #CA657C",
"G.	c #718755",
"H.	c #597635",
"I.	c #809A66",
"J.	c #4D6D2F",
"K.	c #586F45",
"L.	c #566F36",
"M.	c #4E663A",
"N.	c #445C32",
"O.	c #8D4063",
"P.	c #43602A",
"Q.	c #460211",
"R.	c #819672",
"S.	c #6E8461",
"T.	c #7B916B",
"U.	c #6B7B5E",
"V.	c #577939",
"W.	c #6C8459",
"X.	c #4C7131",
"Y.	c #4E752F",
"Z.	c #35531E",
"`.	c #85A96F",
" +	c #79A064",
".+	c #3E572C",
"++	c #5F9957",
"@+	c #9CAC88",
"#+	c #7B9868",
"$+	c #FFC5ED",
"%+	c #9FA39B",
"&+	c #999E94",
"*+	c #839D6A",
"=+	c #90B272",
"-+	c #89A272",
";+	c #9BA492",
">+	c #939B8A",
",+	c #87A371",
"                    . + @ . . #     $     # #                                 % #   & * $ $ #   # # = * #   & - & # ;     # $   ",
"=       # %                               $ # *             > ,           $ $     #     $   # # $   #   # & #     # >   # # '   ",
")       $ #     $     )   = )       = &       !             ~ {     >   )     $ #   ) $ > # $ $ # # ' $ ' ] ]     ] , >         ",
"    '     # $ # $ # $ % $             & * #     $           ^ /     ( _   ) $ )     ) # #     # # $ #   ] # > # , :   # ~ { <   ",
")   #         # > $ $ $ # [ *   &       > }     }       #   < /     |     #   * & $ ) # #   # $ # # # # #     ] ] > $       ,   ",
"    =   *   $   $   %   $ [ [         1 #       ( # % $     > 2 ( > {   # $ =   # 1     $ $ # & & 3 # $ $ #   #   #   %       = ",
"  ) )   4 =         &     !       # # } _ #   , ~ $   1       / ,         1 ' $ 1 1   $ 1 > # #   , : 5 & 1 ' # # #   )         ",
"    ) & 4         & *   > >         # > _ $ # . ~ $   #                 &       6 , ( 1 $ $ } 7 8 ] 8 9 # 0 1 # # * 4       # > ",
"      & = > , ] % *   [ = >               # # ~ {   $       3 *       $ , $   1 1 ~ ,   ] 8 # a b ] + 7 a ] ]     ! #     # ] ] ",
"      *   # 0 0 #     ) > ) =       # #     $ ~ ^         = & *   # $ > . #   # ] 7     c } , d e + ~ a f g , , # # # #       # ",
"  # >       ] 0 #         h i j b   # # #       )       & k l l l l k > ~ $ 1   } { 1 # 8 + d 9 m ~ { n b # | > $ # =           ",
"  + 0   % $   = 4 &     o p p j q r a 0                 s t l l l l l s ~ # ] # 8 ~ + 1 $ ' d u d { ^ v ] . ] #     &     # > ; ",
"  > #   ( ( #   & &   w x y z A z B C : , + & & )   > > l l D D D l l l 1     # E 1 8 8 # & > < F G H d 7 . # $ # # *   #   , : ",
"        ( ( $       + b I J K J I L a + . + & &     ( M l l D D D l l N O     # 8 1 7 8 ] ' ] a d P n Q a } #   $   # & #     # ",
"= &     > ^ $ $         ] . R R @ S a ( b + % #     k O l l l l l l l l O k > $ 8 1 7 ] 1 # ] 8 9 T U F b } $ #       $ #       ",
"  &     > ^ #         & & &   =   &   , ] ] #   ) V W O l l l l l l l l X k Y # 1 1 { ] 1 # # + 7 9 7 , ] ,   #   #           4 ",
"& &             )     & ) * =       #           & t W X l l l l l l l Z O ` Y # ] 8 ~ ] 1 $ # $ $ $     $       # $     > > > 4 ",
"= &     %       )       =   &     $ $ # & & =     M  .O M l N l l l l O O M M ..+.+ 8 1 3 # # #       # = * @.- > # } % }   _ % ",
"          ) $   ) %     )   # $   $ $ #   * #.&     M O O O O O O O O O O O $.%.&.] # # # &     #   % > [ *.=.-._ > . ( } ^ ^   ",
"      $     $   $   = ( _       $   %       &       * O O O O O O O O O O ;.>.>.,.. _ $ $ =       # > _ '.).-._ !.~.~ { _ ^   ) ",
"      $   )   % ,   *   & &       ) >   &       %   )   O O O O O O O O +   0 , # # .   #     =   % , ^ < {.=.].^././ < % (.: # ",
"  = [   #       !       _.@.:.= _ > .           $   =     O O O O O O   = #   & - <.[.#       _ }   }.^ / |.-.^ 2 1.2 G }.(.2.= ",
"  ) )           [ 4 = 3.! * :.4.^ ^ _   # ,   $ > $ # %   O Z Z Z Z O   #   - - - 5.[.6.      , u   }.< ^ ~.% 7.8.9.< G }.9.0.* ",
")   #       > ) [ = a.4.0 = b.c.b   ~     }   > 1 > > $   O d.N N N X   > & ' : & ; : , # % $   ( _ e.{ _ 0._ 7.(._ < / }.!.1.  ",
"[   *   $   {   % = 0 f.g.[.h.g.. > 0     _ $ ] > # ] i.j.k.l.D D m.n.o.p.% # ; ] : + , ]     $ = 7.e.( ^ 2.% 7.8.< ^ 2 { d # [ ",
")       # # (   % > ( _ # ) = , , = > >   _ # > # $ V k.l.l.l.k.k.l.l.j.` Y # > > % #   # % $ > , 7.= ( q.0.% !.H 2 . , < F = * ",
"*   * #   # _ > + , . % =   ] ] #   $   ] > $ %   Z V r.l.l.l.l.l.l.l.s.` Y N     $ > .   # % # # _ _ 7.( t._ ( < a 7.~ , +   [ ",
"*     ' $ $ _ ~ , # .   = # > > > { H / / /      .t t D l.l.l.l.l.l.l.l.D Y l M ( > > G , >   , . # , 7.#   % . , { { ( >     = ",
"        )     $   # } >   . ( ^ 7./ d <   u <   M t t Y l.l.l.l.l.k.k.l.D V l M { (   > !.^   ^ . # > _ ] >   > . 7 ,   & + &   ",
"& )     > # >     =       # > < ( { / <     >   M l M u.l.l.l.k.k.l.k.k.p.O t M . / > > (.v.( (   # # # ] > = # , ( .   & 0 #   ",
"      > ( ^ ^           $ #           & =       M l O w.l.l.l.l.k.l.l.l.u.O l M > < u ] m { v <         $   [     { >           ",
"                # ) =               x.y.x.    z.l t M w.w.l.l.l.l.l.n.w.w.O l t   ( u a Q F A.u   # #     = [         %         ",
"                $ = ) * $ # #   #     -   # z.z.t l O w.w.w.w.w.w.w.w.w.w.O l l     . + @ + . #     #     $ >                   ",
"            $           > $ #   # # #     B.C.M t l X w.w.w.w.w.w.w.w.w.w.O l l M         #               $ $ *             # } ",
"  $ # % =   $ # #     $ # # % $ # #     # q.D.M t t X u.w.w.w.w.w.w.w.w.w.O V l M     =     )     3 & &       !             _ > ",
"    ~ _ )     )     = $ #   $ # # # # # # ] b t t M E.s.s.w.w.w.w.w.w.k.j.E.M t t # $ # #             & &       %           ~ > ",
"    ^   # # ' 4 & $ &   # # # $ # ' ] ' '   F.t t M u.u.n.k.n.s.l.l.s.n.w.u.M t t 1 1 # # ) &   &       > ,     } #   %     ~ > ",
"{ > {   # $ )     1     $ # $ * 3 & ' ] ] # k t t O w.w.u.u.k.Y D l.w.u.u.w.O t t       $ ) ) %       ] #       ~ #   $       > ",
"}         $ ' 1 1 1   $ 1 1 # $ 3 G.0 5 3 ] k t t O w.w.w.w.p.p.u.u.u.u.w.w.O t t   =     !         $ } _ #   , ~ $   #       > ",
"  %     & '     6 } 7 1 ] # +.H.5 G.5 5 I.b k t W O w.l.l.l.l.n.n.k.l.n.n.w.E.l l & *   > %       $   > _ 1 $ . {   $ # $       ",
")     $ } $ % 1 1 ~ ,   # | 9 5 5 5 ..J.K.&.` D d.u.w.l.k.k.k.k.k.n.k.k.n.w.w.k D N   * ) >             % # $ } {             * ",
"  $ >   ~     $ 1 { #   H.L.H.$.M.L.J.,.,.N.` D u.X u.l.k.l.n.k.k.k.l.k.n.w.O.i.D N   = > & =       #       $ ~ {           & * ",
"  $ 1 $ ~ # ]   , a 1 # 8 L.P.M.,.J.,.S g , , s u. .u.l.u.w.l.w.w.s.w.u.n.u.` u.k         h o r | =   $ $               3 * * ' ",
"  % $ 8 ~ # $ # 8 } , 1 1 $ | a 9 8 8 7 $ + ] $ O Q.u.n.n.k.w.u.u.u.k.k.n.u.Q.M * &     R.h B S.T.c.a 0     =           &       ",
"% $ % $ ]     ' E 1 8 8 > & } a 9 { { b ( + $ # #   u.n.n.n.w.,   u.k.l.n.u.#   = &   w w w U.w S.U.C : + , & & )   , >   >     ",
"        ]     1 8 ] 7 8 ] # ~ | 9 C a a a > #   #   u.n.n.n.w.    w.n.k.n.u.#       + . I I K x J x @ + b + - & =   ( (   ^ ~   ",
"      > # # ] # 6 ] 7 ] 1 # 1 8 ~ e a a b ] > # $   u.n.k.u.u.  3 w.w.n.n.u.$ 1 $       , + R R @ A.a b b ~   $     % <   / /   ",
"  $   # # > , # 1 1 { ] 1 # > + E 7 8 , 1 }   #   # u.n.n.w.w.* = u.w.l.n.u.#     )   & &   &   = & = , # > >   )     ^ { > 8.  ",
", ~ V.W.V.X.C > ] + b ] 1 # 1 #   $ %   $ %     # # u.k.n.u.w.* & u.w.l.n.u.    )     & & & &       $   3       *     # 2 ( 2   ",
"0 V.&.b V.Y.C ..+.8 8 1 3 #   # $     #   * @.4 > # u.n.n.w.w.%   u.w.l.n.u.  #         [   3     $ $   & & 3     #   % / { % } ",
"Z.>.M.A._ F X.%.&.] # #   ' # #     % > ) *.`. +_ > u.n.l.w.w.    u.w.k.n.u.#   )       [   #     $ $ >   * #.*     [   . 8.| > ",
"A..+>.,.e %.>.,.,.+ ( # $ =   & $   _ > '.).-.++!.~.w.p.u.w.w.=   u.w.u.u.u.#   %   & 7._   #     #         =       * ) * / + } ",
", b b , 0   + , #   . #       &   % _ ^ u {.=.].^./.u.s.l.w.w.#   u.u.l.s.u.  # >   *   = &       [ >   ) )           % [ =   # ",
", + ]   =   # - @+q #+#       } , = }.| G |.}.^ H p.l.$+n.w.2.=     w.n.Y n.u.  4       _.@.:.= . > ~ >         #   =     [ =   ",
"      #   # 3.p %+&+j *+    # } u   }./ !.|.|.7.H w.k.k.l.w.0.*     w.k.k.n.u.  [ *   _.! 4 :.4.^ 7.|   # (   # 1 #     %     ) ",
"4 =+@.  %   -+j ;+>+z _ $       7.^ }.^ _ 0.( q.8.w.w.u.u.u.1.= )   w.u.u.u.u.[ * = h T.0 [ ,+B b   ^ =   (   , } # > $       & ",
"  x.@.  =   6.I.0 r 9 , ]   # # = / }.u u 0.|.^ 8.^ u H { d # [ &   =   $   {   = 4 . f.S.).a.f.0 ] {   = u > > $ # 1 1 $ ) %   ",
"        ) = # _ ] #     % #   } > H . G ^ 0.> ^ H d , , < v [ * )   )     $ 7 % = % . _ ; ! [ + _ = 7 ~ = < $ # > #   > $       ",
"  )     =     #   # > .       # # { G 2 ( 0._ 7.G { 7.~ + +   [ * ) * $ #   , , . 0 . > * * . ( % # } # a < # >   1       %     ",
"  * %         # 7.> > u } ,   , . , ^ 8.    |.7., 7 { . ;       ) )     # $ _ . , $ _   = $ ] _ # { d e < d #         ( ~ ( )   ",
") )             { (   > ^ u   ^ + ] > , , %   > ~ { +   & ,           =       #   # , > % _ . ^ 7./ d <   < <     #   > > ^ (   ",
"[         , ( ( _ / } , (.v.( ( # $ # > ] > =   , b . = & } #   &       > > >       $ )   $ > < ( { / G     >           )       ",
")       % { ( ~ > G a > v { H <         ]   [     ^ ] =   %           # ( ^ ^             # %         &         -         '   ' ",
")                 ( u u Q F F a     #       )                                     )     # # $       x.& &     & =   &       '   "};
