/* XPM */
static char * char_left_xpm[] = {
"64 64 161 2",
"  	c #7BAA53",
". 	c #6C9352",
"+ 	c #729553",
"@ 	c #617E4C",
"# 	c #7BA452",
"$ 	c #7EA04E",
"% 	c #75AA55",
"& 	c #82AD5B",
"* 	c #82B35D",
"= 	c #7DAD5A",
"- 	c #84AD62",
"; 	c #7CA459",
"> 	c #75A252",
", 	c #749C53",
"' 	c #80A753",
") 	c #7EB056",
"! 	c #86BA65",
"~ 	c #6C944E",
"{ 	c #638C4D",
"] 	c #799D51",
"^ 	c #5E894B",
"/ 	c #548246",
"( 	c #679151",
"_ 	c #6E9B52",
": 	c #799D5B",
"< 	c #5A8447",
"[ 	c #7EB059",
"} 	c #72994F",
"| 	c #648546",
"1 	c #7C9D4E",
"2 	c #4F8145",
"3 	c #81A954",
"4 	c #86B262",
"5 	c #617D45",
"6 	c #789147",
"7 	c #6A8D4E",
"8 	c #74944E",
"9 	c #6A854D",
"0 	c #73945A",
"a 	c #63844B",
"b 	c #6C8D52",
"c 	c #5B7937",
"d 	c #547B43",
"e 	c #5C7B43",
"f 	c #457C40",
"g 	c #728D56",
"h 	c #879A79",
"i 	c #99A78F",
"j 	c #909B86",
"k 	c #000000",
"l 	c #889A7A",
"m 	c #A1A69E",
"n 	c #8C9782",
"o 	c #798C6A",
"p 	c #627255",
"q 	c #5D6B53",
"r 	c #738169",
"s 	c #858E7C",
"t 	c #727F69",
"u 	c #738565",
"v 	c #5E7B49",
"w 	c #222323",
"x 	c #58654F",
"y 	c #596651",
"z 	c #54614B",
"A 	c #5C6D4F",
"B 	c #5B854A",
"C 	c #885041",
"D 	c #2D3136",
"E 	c #6A8552",
"F 	c #5A7643",
"G 	c #538349",
"H 	c #9A624C",
"I 	c #648C52",
"J 	c #477D3F",
"K 	c #2E3D47",
"L 	c #4C7D42",
"M 	c #90B46C",
"N 	c #43602A",
"O 	c #498943",
"P 	c #92B07C",
"Q 	c #8BB26B",
"R 	c #8AAD6B",
"S 	c #101520",
"T 	c #729D5D",
"U 	c #96AB81",
"V 	c #75916B",
"W 	c #608A5A",
"X 	c #6B9B62",
"Y 	c #849975",
"Z 	c #85A569",
"` 	c #758D61",
" .	c #1D2C43",
"..	c #5E8755",
"+.	c #699563",
"@.	c #677B5B",
"#.	c #6D885A",
"$.	c #749662",
"%.	c #81A167",
"&.	c #181F2F",
"*.	c #537343",
"=.	c #23324D",
"-.	c #372423",
";.	c #49251C",
">.	c #89B165",
",.	c #98B87C",
"'.	c #583126",
").	c #9A9C98",
"!.	c #628251",
"~.	c #718755",
"{.	c #5B7C3E",
"].	c #597635",
"^.	c #537335",
"/.	c #566F36",
"(.	c #516D39",
"_.	c #4E663A",
":.	c #4D6D2F",
"<.	c #425C2C",
"[.	c #758D4B",
"}.	c #577939",
"|.	c #6C8459",
"1.	c #4C7131",
"2.	c #5C7448",
"3.	c #4E752F",
"4.	c #35531E",
"5.	c #3D5E24",
"6.	c #54753C",
"7.	c #4A6734",
"8.	c #89AD75",
"9.	c #85A96F",
"0.	c #79A064",
"a.	c #3E572C",
"b.	c #6E9868",
"c.	c #7BA26C",
"d.	c #71A565",
"e.	c #5F9957",
"f.	c #71A15B",
"g.	c #6C8D63",
"h.	c #82AA72",
"i.	c #5B9054",
"j.	c #4E794D",
"k.	c #6C976B",
"l.	c #9CAC88",
"m.	c #7B9868",
"n.	c #74B25B",
"o.	c #6DA15A",
"p.	c #9FA39B",
"q.	c #999E94",
"r.	c #839D6A",
"s.	c #90B272",
"t.	c #89A272",
"u.	c #9BA492",
"v.	c #939B8A",
"w.	c #7B916B",
"x.	c #87A371",
"y.	c #7E9F61",
"z.	c #809A66",
"A.	c #6E8461",
"B.	c #4F7741",
"C.	c #5A994B",
"D.	c #476A3C",
"                    . + @ . . #     $     # #                                 % #   & * $ $ #   # # = * #   & - & # ;     # $   ",
"=       # %                               $ # *             > ,           $ $     #     $   # # $   #   # & #     # >   # # '   ",
")       $ #     $     )   = )       = &       !             ~ {     >   )     $ #   ) $ > # $ $ # # ' $ ' ] ]     ] , >         ",
"    '     # $ # $ # $ % $             & * #     $           ^ /     ( _   ) $ )     ) # #     # # $ #   ] # > # , :   # ~ { <   ",
")   #         # > $ $ $ # [ *   &       > }     }       #   < /     |     #   * & $ ) # #   # $ # # # # #     ] ] > $       ,   ",
"    =   *   $   $   %   $ [ [         1 #       ( # % $     > 2 ( > {   # $ =   # 1     $ $ # & & 3 # $ $ #   #   #   %       = ",
"  ) )   4 =         &     !       # # } _ #   , ~ $   1       / ,         1 ' $ 1 1   $ 1 > # #   , : 5 & 1 ' # # #   )         ",
"    ) & 4         & *   > >         # > _ $ # . ~ $   #                 &       6 , ( 1 $ $ } 7 8 ] 8 9 # 0 1 # # * 4       # > ",
"      & = > , ] % *   [ = >               # # ~ {   $       3 *       $ , $   1 1 ~ ,   ] 8 # a b ] + 7 a ] ]     ! #     # ] ] ",
"      *   # 0 0 #     ) > ) =       # #     $ ~ ^         = & *   # $ > . #   # ] 7     c } , d e + ~ a f g , , # # # #       # ",
"  # >       ] 0 #         h i j b   # # #       )       & & =       1 > ~ $ 1 k k k k k k k k k k k k k b # | > $ # =           ",
"  + 0   % $   = 4 &     l m m j n o a 0                 &           k k k k k k k k k k k k k k k k k k k k ] #     &     # > ; ",
"  > #   ( ( #   & &   p q r s t s u v : , + & & )   > >   >       k k k k k k k k w w w w w w w w w w k k k k $ # # *   #   , : ",
"        ( ( $       + b x y z y x A a + . + & &     ( ( = B ~   k k k C C C C w w D D D D D D D D w w w w k k k $   # & #     # ",
"= &     > ^ $ $         ] . E E @ F a ( b + % #       G   / / k k k H H H C C C D D D D D D D D D D D w w w k k k     $ #       ",
"  &     > ^ #         & & &   =   &   , ] ] #   )     { I > J k k H H H H H C C C K K K K K K D D D D D w w w k k k           4 ",
"& &             )     & ) * =       #           &       2 ( L k k H H H H H H C C K K K K K K K D D D D D w w w k k k   > > > 4 ",
"= &     %       )       =   &     $ $ # & & =     %     / {   k k H H H H H H C C K K K K K K K K D D D D w w w w k k % }   _ % ",
"          ) $   ) %     )   # $   $ $ #   * M &     )   ( J N k k H H H H H H C C K K K K K K K K D D D D D w w w k k k } ^ ^   ",
"      $     $   $   = ( _       $   %       &       * = * / k k k k k k k k k k k k k k k k k K K D D D D D w w w w k k _ ^   ) ",
"      $   )   % ,   *   & &       ) >   &       %   )   k k k k k k k k k k k k k k k k k k k k k D D D D D w w w w k k k O : # ",
"  = [   #       !       P Q R = _ > .           $   k k k k k S S S S S S S S S S S S S S S k k k k D D D D w w w w w k k O T = ",
"  ) )           [ 4 = U ! * R V ^ ^ _   # ,   $ > k k k k S S S S S S S S S S S S S S S S S S S k k k D D w w w w w w k k W X * ",
")   #       > ) [ = Y V 0 = Z ` b   ~     }   > k k k S S S S S S S S S  . .S S S S S S S S S S S k k k k w w w w w w k k ..+.  ",
"[   *   $   {   % = 0 @.#.$.%.#.. > 0     _ $ k k k S S S &.&.&.S S S  . . . .S S S S S S S S S S S k k k k w w w w w k k d # [ ",
")       # # (   % > ( _ # ) = , , = > >   _ # k k S &.&.&.&.&.&.&.S  . . . . . .S S S S S S S S S S k k k k k k k w w k k *.= * ",
"*   * #   # _ > + , . % =   ] ] #   $   ] > k k k S &.&.&.&.&.&.&. . . . . . . . .S &.&.&.&.S S S S S k k k k k k k k k k +   [ ",
"*     ' $ $ _ ~ , # .   = # > > > { L / / / k k S &.&.&.&.&.&.&.&. . . .=.=.=. .&.&.&.&.&.&.&.&.S S S k k k -.-.k k k k k     = ",
"        )     $   # } >   . ( ^ I / d <   B k k S &.&.&.&.&.&.&. . . .=.=.=.=.=.&.&.&.&.&.&.&.&.S S S S k k ;.;.-.-.-.k k k &   ",
"& )     > # >     =       # > < ( { / <     k k S &.&.&.&.&.&.&. . .=.=.=.=.=.&.&.&.&.&.&.&.&.&.&.S S S k k ;.;.;.;.-.-.k k k   ",
"      > ( ^ ^           $ #           & =   k k S &.&.&.&.&.&.&. . .=.=.=.=.=.&.S &.&.&.&.&.&.&.&.S S S k k ;.;.;.;.;.-.-.k k k ",
"                # ) =               >.,.>.  k k S &.&.&.&.&.&.&. . .=.=.=.=.=.S S S &.&.&.&.&.&.&.S S S k k '.'.;.;.;.;.-.-.k k ",
"                $ = ) * $ # #   #     -   # k k S &.&.&.&.&.&.&. . .=.=.=.=.=.&.S &.&.&.&.&.&.&.&.S S S k k '.'.'.;.;.;.-.-.k k ",
"            $           > $ #   # # #     ).k k S &.&.&.&.&.&.&. . .=.=.=.=.=.&.&.&.&.&.&.&.&.&.&.S S S k k '.'.'.'.;.;.-.-.k k ",
"  $ # % =   $ # #     $ # # % $ # #     # !.k k S &.&.&.&.&.&.&. . . .=.=.=.=.=.&.&.&.&.&.&.&.&.S S S S k k '.'.'.'.;.;.-.-.k k ",
"    ~ _ )     )     = $ #   $ # # # # # # k k k S &.&.&.&.&.&.&.&. . . .=.=.=. .&.&.&.&.&.&.&.&.S S S k k k '.'.'.'.;.;.-.-.k k ",
"    ^   # # ' 4 & $ &   # # # $ # ' ] ' k k k k k S &.&.&.&.&.&.&. . . . . . . . .S &.&.&.&.S S S S S k k '.'.'.'.'.;.;.-.-.k k ",
"{ > {   # $ )     1     $ # $ * 3 & ' k k k H k k S &.&.&.&.&.&.&.S  . . . . . .S S S S S S S S S S k k k '.'.'.'.'.;.;.-.-.k k ",
"}         $ ' 1 1 1   $ 1 1 # $ 3 ~.0 k k H H k k k S S S &.&.&.S S S  . . . .S S S S S S S S S S S k k '.'.'.'.'.'.;.;.-.-.k k ",
"  %     & '     6 } 7 1 ] # {.].5 ~.5 k k H H H k k k S S S S S S S S S  . .S S S S S S S S S S S k k k '.'.'.'.'.'.;.;.-.-.k k ",
")     $ } $ % 1 1 ~ ,   # | 9 5 5 5 ^.k k H H H H k k k k S S S S S S S S S S S S S S S S S S S k k k '.'.'.'.'.'.;.;.;.-.k k k ",
"  $ >   ~     $ 1 { #   ]./.].(._./.:.k k k H H H H k k k k k S S S S S S S S S S S S S S S k k k k '.'.'.'.'.'.'.;.;.-.-.k k * ",
"  $ 1 $ ~ # ]   , a 1 # 8 /.N _.<.:.<.F k k H H H H C C k k k k k k k k k k k k k k k k k k k k k '.'.'.'.'.'.'.;.;.;.-.k k k ' ",
"  % $ 8 ~ # $ # 8 } , 1 1 $ | a 9 8 8 7 k k k C C C C K K K k k k k k k k k k k k k k k k k k '.'.'.'.'.'.'.'.;.;.;.-.k k k     ",
"% $ % $ ]     ' [.1 8 8 > & } a 9 { { b ( k k k K K K K K K K K K D D D D w k k k -.;.;.;.'.'.'.'.'.'.'.'.'.;.;.;.-.k k k >     ",
"        ]     1 8 ] 7 8 ] # ~ | 9 v a a a > k k K K K K K K K K K D D D D w w k k k -.;.;.;.'.'.'.'.'.'.'.;.;.;.-.k k k   ^ ~   ",
"      > # # ] # 6 ] 7 ] 1 # 1 8 ~ e a a b ] k k k K K K K K K K K D D D D w w w k k -.;.;.;.;.'.'.'.'.;.;.;.;.-.k k k <   / /   ",
"  $   # # > , # 1 1 { ] 1 # > + [.7 8 , 1 }   k k K K K K K K K D D D D D w w w k k k -.;.;.;.;.;.;.;.;.;.;.-.k k k   ^ { > J   ",
", ~ }.|.}.1.v > ] + b ] 1 # 1 #   $ %   $ %   k k k K K K K K D D D D D w w w w w k k -.;.;.;.;.;.;.;.;.-.-.k k k     # 2 ( 2   ",
"0 }.2.b }.3.v ^.{.8 8 1 3 #   # $     #   * Q 4 k k k k K K D D D D D w w w w w w k k -.-.-.;.;.;.;.-.-.-.k k k   #   % / { % } ",
"4.5._.6._ *.1.7.2.] # #   ' # #     % > ) 8.9.0._ k k k k D D D D w w w w w w w w k k k -.-.-.-.-.-.-.-.k k k *     [   . J | > ",
"6.a.5.<.e 7.5.<.<.+ ( # $ =   & $   _ > b.c.d.e...f.~ k k k k w w w w w w w w w k k k k k -.-.-.-.-.-.k k k =       * ) * / + } ",
", b b , 0   + , #   . #       &   % _ ^ B g.h.i.j.k./ G k k k k k k k k k k k k k k k k k k k k k k k k k )           % [ =   # ",
", + ]   =   # - l.n m.#       } , = n.| G o.n.^ L +.O G n.< k k k k k k k k k k k       k k k k k k k k         #   =     [ =   ",
"      #   # U m p.q.j r.    # } B   n./ ..o.o.I L W ^ G n...X *     &           [ *   P ! 4 R V ^ I |   # (   # 1 #     %     ) ",
"4 s.Q   %   t.j u.v.s _ $       I ^ n.^ _ X ( !.J ( B G n.^ +.= )           > [ * = h w.0 [ x.u b   ^ =   (   , } # > $       & ",
"  >.Q   =   y.z.0 o 9 , ]   # # = / n.B B X o.^ J ^ B L { d # [ &   =   $   {   = 4 . @.A.c.Y @.0 ] {   = B > > $ # 1 1 $ ) %   ",
"        ) = # _ ] #     % #   } > L . G ^ X > ^ L d , , < B.[ * )   )     $ 7 % = % . _ ; ! [ + _ = 7 ~ = < $ # > #   > $       ",
"  )     =     #   # > .       # # { G 2 ( X _ I G { I ~ + +   [ * ) * $ #   , , . 0 . > * * . ( % # } # a < # >   1       %     ",
"  * %         # I > > B } ,   , . , ^ J     o.I , 7 { . ;       ) )     # $ _ . , $ _   = $ ] _ # { d e < d #         ( ~ ( )   ",
") )             { (   > ^ B   ^ + ] > , , %   > ~ { +   & ,           =       #   # , > % _ . ^ I / d <   < <     #   > > ^ (   ",
"[         , ( ( _ / } , O C.( ( # $ # > ] > =   , b . = & } #   &       > > >       $ )   $ > < ( { / G     >           )       ",
")       % { ( ~ > G a > B.{ L <         ]   [     ^ ] =   %           # ( ^ ^             # %         &         -         '   ' ",
")                 ( B B D.*.*.a     #       )                                     )     # # $       >.& &     & =   &       '   "};
