/* XPM */
static char * char_up_xpm[] = {
"64 64 161 2",
"  	c #7BAA53",
". 	c #6C9352",
"+ 	c #729553",
"@ 	c #617E4C",
"# 	c #7BA452",
"$ 	c #7EA04E",
"% 	c #75AA55",
"& 	c #82AD5B",
"* 	c #82B35D",
"= 	c #7DAD5A",
"- 	c #84AD62",
"; 	c #7CA459",
"> 	c #75A252",
", 	c #749C53",
"' 	c #80A753",
") 	c #7EB056",
"! 	c #86BA65",
"~ 	c #6C944E",
"{ 	c #638C4D",
"] 	c #799D51",
"^ 	c #5E894B",
"/ 	c #548246",
"( 	c #679151",
"_ 	c #6E9B52",
": 	c #799D5B",
"< 	c #5A8447",
"[ 	c #7EB059",
"} 	c #72994F",
"| 	c #648546",
"1 	c #7C9D4E",
"2 	c #4F8145",
"3 	c #81A954",
"4 	c #86B262",
"5 	c #617D45",
"6 	c #789147",
"7 	c #6A8D4E",
"8 	c #74944E",
"9 	c #6A854D",
"0 	c #73945A",
"a 	c #63844B",
"b 	c #6C8D52",
"c 	c #5B7937",
"d 	c #547B43",
"e 	c #5C7B43",
"f 	c #457C40",
"g 	c #728D56",
"h 	c #879A79",
"i 	c #99A78F",
"j 	c #909B86",
"k 	c #4D793F",
"l 	c #49733E",
"m 	c #889A7A",
"n 	c #A1A69E",
"o 	c #8C9782",
"p 	c #798C6A",
"q 	c #5B854A",
"r 	c #4F7741",
"s 	c #627255",
"t 	c #5D6B53",
"u 	c #738169",
"v 	c #858E7C",
"w 	c #727F69",
"x 	c #738565",
"y 	c #5E7B49",
"z 	c #758D4B",
"A 	c #537343",
"B 	c #538349",
"C 	c #4C7D42",
"D 	c #58654F",
"E 	c #596651",
"F 	c #54614B",
"G 	c #5C6D4F",
"H 	c #3E6838",
"I 	c #476A3C",
"J 	c #6A8552",
"K 	c #5A7643",
"L 	c #3E5832",
"M 	c #4C6A3A",
"N 	c #648C52",
"O 	c #477D3F",
"P 	c #54753C",
"Q 	c #6D885A",
"R 	c #4C7131",
"S 	c #45682C",
"T 	c #6C8459",
"U 	c #496931",
"V 	c #5C7448",
"W 	c #718755",
"X 	c #577939",
"Y 	c #4E752F",
"Z 	c #537335",
"` 	c #5B7C3E",
" .	c #8BB26B",
"..	c #90B46C",
"+.	c #43602A",
"@.	c #3D5E24",
"#.	c #35531E",
"$.	c #445C32",
"%.	c #516D39",
"&.	c #4A6734",
"*.	c #89AD75",
"=.	c #82AA72",
"-.	c #71A565",
";.	c #000000",
">.	c #36591D",
",.	c #3E572C",
"'.	c #425C2C",
").	c #6E9868",
"!.	c #7BA26C",
"~.	c #5E8755",
"{.	c #71A15B",
"].	c #6C8D63",
"^.	c #5B9054",
"/.	c #4E794D",
"(.	c #6C976B",
"_.	c #498943",
":.	c #92B07C",
"<.	c #8AAD6B",
"[.	c #9A624C",
"}.	c #67855B",
"|.	c #749662",
"1.	c #74B25B",
"2.	c #6DA15A",
"3.	c #699563",
"4.	c #729D5D",
"5.	c #96AB81",
"6.	c #75916B",
"7.	c #5D7A54",
"8.	c #7E9F61",
"9.	c #608A5A",
"0.	c #6B9B62",
"a.	c #849975",
"b.	c #85A569",
"c.	c #885041",
"d.	c #76AF5D",
"e.	c #677B5B",
"f.	c #2E3D47",
"g.	c #101520",
"h.	c #181F2F",
"i.	c #628251",
"j.	c #6F9D5E",
"k.	c #2D3136",
"l.	c #5A994B",
"m.	c #222323",
"n.	c #1D2C43",
"o.	c #23324D",
"p.	c #372423",
"q.	c #49251C",
"r.	c #583126",
"s.	c #4E663A",
"t.	c #9CAC88",
"u.	c #7B9868",
"v.	c #9FA39B",
"w.	c #999E94",
"x.	c #839D6A",
"y.	c #90B272",
"z.	c #89A272",
"A.	c #9BA492",
"B.	c #939B8A",
"C.	c #89B165",
"D.	c #809A66",
"                    . + @ . . #     $     # #                                 % #   & * $ $ #   # # = * #   & - & # ;     # $   ",
"=       # %                               $ # *             > ,           $ $     #     $   # # $   #   # & #     # >   # # '   ",
")       $ #     $     )   = )       = &       !             ~ {     >   )     $ #   ) $ > # $ $ # # ' $ ' ] ]     ] , >         ",
"    '     # $ # $ # $ % $             & * #     $           ^ /     ( _   ) $ )     ) # #     # # $ #   ] # > # , :   # ~ { <   ",
")   #         # > $ $ $ # [ *   &       > }     }       #   < /     |     #   * & $ ) # #   # $ # # # # #     ] ] > $       ,   ",
"    =   *   $   $   %   $ [ [         1 #       ( # % $     > 2 ( > {   # $ =   # 1     $ $ # & & 3 # $ $ #   #   #   %       = ",
"  ) )   4 =         &     !       # # } _ #   , ~ $   1       / ,         1 ' $ 1 1   $ 1 > # #   , : 5 & 1 ' # # #   )         ",
"    ) & 4         & *   > >         # > _ $ # . ~ $   #                 &       6 , ( 1 $ $ } 7 8 ] 8 9 # 0 1 # # * 4       # > ",
"      & = > , ] % *   [ = >               # # ~ {   $       3 *       $ , $   1 1 ~ ,   ] 8 # a b ] + 7 a ] ]     ! #     # ] ] ",
"      *   # 0 0 #     ) > ) =       # #     $ ~ ^         = & *   # $ > . #   # ] 7     c } , d e + ~ a f g , , # # # #       # ",
"  # >       ] 0 #         h i j b   # # #       )       & & =       1 > ~ $ 1   } { 1 # 8 + d 9 k ~ { l b # | > $ # =           ",
"  + 0   % $   = 4 &     m n n j o p a 0                 &           } 1 ~ # ] # 8 ~ + 1 $ ' d q d { ^ r ] . ] #     &     # > ; ",
"  > #   ( ( #   & &   s t u v w v x y : , + & & )   > >   >           > 1     # z 1 8 8 # & > < A B C d 7 . # $ # # *   #   , : ",
"        ( ( $       + b D E F E D G a + . + & &     ( ( = q ~       % # }     # 8 1 7 8 ] ' ] a d H l I a } #   $   # & #     # ",
"= &     > ^ $ $         ] . J J @ K a ( b + % #       B   / /         # $ > > $ 8 1 7 ] 1 # ] 8 9 L M A b } $ #       $ #       ",
"  &     > ^ #         & & &   =   &   , ] ] #   )     { N > O     $       # } # 1 1 { ] 1 # # + 7 9 7 , ] ,   #   #           4 ",
"& &             )     & ) * =       #           &       2 ( C   @ e P Q P R y # ] 8 ~ ] 1 $ # $ $ $     $       # $     > > > 4 ",
"= &     %       )       =   &     $ $ # & & =     %     / {   S T U V W X Y y Z ` + 8 1 3 # # #       # = *  .- > # } % }   _ % ",
"          ) $   ) %     )   # $   $ $ #   * ..&     )   ( O +.@.#.@.$.P _ A %.&.V ] # # # &     #   % > [ *.=.-._ > . ( } ^ ^   ",
"      $     $   $   = ( _       $   %       ;.;.;.;.;.= * / b >.#.,.@.'.d U @.@.'.. _ $ $ =       # > _ ).!.-._ ~.{.~ { _ ^   ) ",
"      $   )   % ,   *   & &       ) >   ;.;.;.;.;.;.;.;.) = % ] , . b 0 +   0 , # # .   #     =   % , ^ < ].=.^./.(./ < % _.: # ",
"  = [   #       !       :. .<.= _ > . ;.;.;.;.[.[.[.;.;.;.[     + , ,   = #   & - }.|.#       _ }   1.^ / 2.-.^ 2 3.2 B 1._.4.= ",
"  ) )           [ 4 = 5.! * <.6.^ ;.;.;.;.[.[.[.[.[.[.;.;.;.;.;.;.;.;.;.;.;.- - - 7.|.8.      , q   1.< ^ {.% N O 9.< B 1.9.0.* ",
")   #       > ) [ = a.6.0 = b.;.;.;.;.;.c.[.[.[.[.;.;.;.;.;.;.;.;.;.;.;.;.;.;.;.& ; : , # % $   ( _ d.{ _ 0._ N _._ < / 1.~.3.  ",
"[   *   $   {   % = 0 e.Q |.;.;.;.;.f.f.c.[.[.[.;.;.;.;.g.g.g.g.g.g.g.g.g.;.;.;.;.: + , ]     $ = N d.( ^ 4.% N O < ^ 2 { d # [ ",
")       # # (   % > ( _ # ;.;.;.f.f.f.f.c.[.[.;.;.;.g.g.h.h.h.h.h.h.h.h.h.g.g.;.;.;.#   # % $ > , N = ( i.0.% ~.C 2 . , < A = * ",
"*   * #   # _ > + , . % = ;.;.f.f.f.f.f.c.c.;.;.;.g.h.h.h.h.h.h.h.h.h.h.h.h.h.g.;.;.;..   # % # # _ _ N ( j._ ( < a N ~ , +   [ ",
"*     ' $ $ _ ~ , # .   ;.;.;.f.f.f.f.f.f.c.;.;.g.g.h.h.h.h.h.h.h.h.h.h.h.h.h.g.g.;.;.B , >   , . # , N #   % . , { { ( >     = ",
"        )     $   # } ;.;.;.f.f.f.f.f.f.f.;.;.;.g.g.h.h.h.h.h.h.h.h.h.h.h.h.h.g.g.;.;.;.~.^   ^ . # > _ ] >   > . 7 ,   & + &   ",
"& )     > # >     =   ;.;.k.f.f.f.f.f.f.f.;.;.g.g.h.h.h.h.h.h.h.h.h.h.h.h.h.h.h.g.g.;.;._.l.( (   # # # ] > = # , ( .   & 0 #   ",
"      > ( ^ ^       ;.;.;.k.k.f.f.f.f.f.;.;.;.g.g.h.h.h.h.h.h.h.h.h.h.h.h.h.h.h.g.g.;.;.;.{ r <         $   [     { >           ",
"                # ) ;.;.m.k.k.k.f.f.f.f.;.;.g.g.g.h.h.h.h.h.h.h.h.h.h.h.h.h.h.h.g.g.g.;.;.;.;.;.;.;.#     = [         %         ",
"                $ = ;.;.m.k.k.k.k.f.f.f.;.;.g.g.g.g.h.h.h.n.n.n.n.n.n.n.h.h.h.g.g.g.g.;.;.;.;.;.;.;.;.    $ >                   ",
"            $       ;.;.m.m.k.k.k.k.k.k.;.;.g.g.g.g.g.n.n.n.n.n.n.n.n.n.n.n.g.g.g.g.g.;.;.[.[.[.[.;.;.;.  $ $ *             # } ",
"  $ # % =   $ # #   ;.;.m.m.k.k.k.k.k.k.;.;.g.g.g.g.n.n.n.n.o.o.o.o.o.n.n.n.n.g.g.g.g.;.;.[.[.[.[.[.;.;.;.    !             _ > ",
"    ~ _ )     )     ;.;.m.m.m.k.k.k.k.k.;.;.g.g.g.n.n.n.n.o.o.o.o.o.o.o.n.n.n.n.g.g.g.;.;.[.[.[.[.[.c.;.;.      %           ~ > ",
"    ^   # # ' 4 & $ ;.;.m.m.m.m.k.k.k.k.;.;.g.g.n.n.n.n.o.o.o.o.o.o.o.o.o.n.n.n.n.g.g.;.;.[.[.[.[.[.c.;.;.,     } #   %     ~ > ",
"{ > {   # $ )     1 ;.;.m.m.m.m.m.m.m.m.;.;.g.g.n.n.n.n.o.o.o.o.o.o.o.o.o.n.n.n.n.g.g.;.;.[.[.[.[.c.c.;.;.      ~ #   $       > ",
"}         $ ' 1 1 1 ;.;.m.m.m.m.m.m.m.;.;.;.g.g.g.n.n.n.o.o.o.o.o.o.o.o.o.n.n.n.g.g.g.;.;.[.[.[.c.c.c.;.;.#   , ~ $   #       > ",
"  %     & '     6 } ;.;.m.m.m.m.m.m.;.;.;.;.g.g.g.g.n.n.n.o.h.h.g.h.h.o.n.n.n.g.g.g.g.;.;.c.c.c.c.c.m.;.;.;.$ . {   $ # $       ",
")     $ } $ % 1 1 ~ ;.;.;.m.m.m.;.;.;.;.;.;.g.g.g.g.g.n.h.h.h.g.g.g.h.h.h.n.g.g.g.g.g.;.;.c.c.c.c.k.m.;.;.;.$ } {             * ",
"  $ >   ~     $ 1 { # ;.;.;.;.;.;.;.;.p.;.;.g.g.g.g.g.g.h.h.h.h.g.h.h.h.h.g.g.g.g.g.g.;.;.f.f.f.f.k.k.m.;.;.$ ~ {           & * ",
"  $ 1 $ ~ # ]   , a 1 ;.;.;.;.;.;.p.p.q.;.;.g.g.g.g.g.h.h.h.h.h.h.h.h.h.h.h.g.g.g.g.g.;.;.f.f.f.f.k.k.m.;.;.            3 * * ' ",
"  % $ 8 ~ # $ # 8 } , ;.;.;.p.p.p.q.q.q.;.;.g.g.g.g.g.h.h.h.h.h.h.h.h.h.h.h.g.g.g.g.g.;.;.f.f.f.f.k.k.m.;.;.=           &       ",
"% $ % $ ]     ' z 1 ;.;.;.p.p.q.q.q.q.q.;.;.g.g.g.g.g.h.h.h.h.h.h.h.h.h.h.h.g.g.g.g.g.;.;.f.f.f.f.k.k.m.;.;.& & )   , >   >     ",
"        ]     1 8 ] ;.;.p.p.p.q.q.q.q.r.;.;.g.g.g.g.g.h.h.h.h.h.h.h.h.h.h.h.g.g.g.g.g.;.;.f.f.f.f.k.k.m.;.;.- & =   ( (   ^ ~   ",
"      > # # ] # 6 ] ;.;.p.p.q.q.q.q.r.r.;.;.;.g.g.g.g.g.h.h.h.h.h.h.h.h.h.g.g.g.g.g.;.;.;.f.f.f.f.k.k.m.;.;.  $     % <   / /   ",
"  $   # # > , # 1 1 ;.;.p.p.q.q.q.r.r.r.r.;.;.g.g.g.g.g.h.h.h.h.h.h.h.h.h.g.g.g.g.g.;.;.f.f.f.f.k.k.k.m.;.;.>   )     ^ { > O   ",
", ~ X T X R y > ] + ;.;.p.p.q.q.q.r.r.r.r.;.;.;.g.g.g.g.g.g.h.h.h.h.h.g.g.g.g.g.g.;.;.;.f.f.f.k.k.k.k.m.;.;.    *     # 2 ( 2   ",
"0 X V b X Y y Z ` 8 ;.;.p.p.q.q.q.r.r.r.r.r.;.;.;.g.g.g.g.g.g.g.g.g.g.g.g.g.g.g.;.;.;.k.k.k.k.k.k.k.m.m.;.;.3     #   % / { % } ",
"#.@.s.P _ A R &.V ] ;.;.p.p.p.q.q.r.r.r.r.r.r.;.;.;.;.g.g.g.g.g.g.g.g.g.g.g.;.;.;.;.k.k.k.k.k.k.k.k.m.m.;.;...*     [   . O | > ",
"P ,.@.'.e &.@.'.'.+ ;.;.;.p.p.q.q.q.r.r.r.r.r.r.;.;.;.;.;.g.g.g.g.g.g.g.;.;.;.;.;.k.k.k.k.k.k.k.k.m.m.;.;.;.=       * ) * / + } ",
", b b , 0   + , #   . ;.;.;.p.p.q.q.r.r.r.r.r.r.r.r.;.;.;.;.;.;.;.;.;.;.;.;.;.;.;.k.k.k.k.k.k.k.m.m.m.;.;.)           % [ =   # ",
", + ]   =   # - t.o u.# ;.;.;.p.q.q.q.r.r.r.r.r.r.r.r.r.;.;.;.;.;.;.;.;.;.;.;.;.m.m.k.k.k.k.m.m.m.m.;.;.;.      #   =     [ =   ",
"      #   # 5.n v.w.j x.  ;.;.;.p.q.q.q.r.r.r.r.r.r.r.r.r.r.r.r.r.q.q.q.p.;.;.m.m.m.m.m.m.m.m.m.m.;.;.;.# (   # 1 #     %     ) ",
"4 y. .  %   z.j A.B.v _ $   ;.;.;.p.q.q.q.r.r.r.r.r.r.r.r.r.r.r.r.q.q.q.p.;.;.m.m.m.m.m.m.m.m.m.;.;.;.=   (   , } # > $       & ",
"  C. .  =   8.D.0 p 9 , ]   # ;.;.;.p.q.q.q.r.r.r.r.r.r.r.r.r.r.q.q.q.p.;.;.;.m.m.m.m.m.m.m.m.;.;.;.{   = q > > $ # 1 1 $ ) %   ",
"        ) = # _ ] #     % #   } ;.;.;.p.q.q.q.q.r.r.r.r.r.r.r.q.q.q.q.p.;.;.m.m.m.m.m.m.m.;.;.;.;.= 7 ~ = < $ # > #   > $       ",
"  )     =     #   # > .       # # ;.;.;.p.q.q.q.q.q.q.q.q.q.q.q.q.q.p.p.;.;.m.m.m.m.m.;.;.;.;.;.% # } # a < # >   1       %     ",
"  * %         # N > > q } ,   , . , ;.;.;.p.p.q.q.q.q.q.q.q.q.q.q.p.p.;.;.;.;.;.;.;.;.;.;.;.] _ # { d e < d #         ( ~ ( )   ",
") )             { (   > ^ q   ^ + ] > ;.;.;.p.p.p.p.p.p.p.p.p.p.p.p.;.;.;.;.;.;.;.;.;.;.% _ . ^ N / d <   < <     #   > > ^ (   ",
"[         , ( ( _ / } , _.l.( ( # $ # > ;.;.;.;.p.p.p.p.p.p.p.p.p.;.;.;.> > >       $ )   $ > < ( { / B     >           )       ",
")       % { ( ~ > B a > r { C <         ] ;.;.;.;.;.;.;.;.;.;.;.;.;.;.# ( ^ ^             # %         &         -         '   ' ",
")                 ( q q I A A a     #       ) ;.;.;.;.;.;.;.;.;.;.;.              )     # # $       C.& &     & =   &       '   "};
