/* XPM */
static char * char_right_xpm[] = {
"64 64 148 2",
"  	c #7BAA53",
". 	c #6C9352",
"+ 	c #729553",
"@ 	c #617E4C",
"# 	c #7BA452",
"$ 	c #7EA04E",
"% 	c #75AA55",
"& 	c #82AD5B",
"* 	c #82B35D",
"= 	c #7DAD5A",
"- 	c #84AD62",
"; 	c #7CA459",
"> 	c #75A252",
", 	c #749C53",
"' 	c #80A753",
") 	c #7EB056",
"! 	c #86BA65",
"~ 	c #6C944E",
"{ 	c #638C4D",
"] 	c #799D51",
"^ 	c #5E894B",
"/ 	c #548246",
"( 	c #679151",
"_ 	c #6E9B52",
": 	c #799D5B",
"< 	c #5A8447",
"[ 	c #7EB059",
"} 	c #72994F",
"| 	c #648546",
"1 	c #7C9D4E",
"2 	c #4F8145",
"3 	c #81A954",
"4 	c #86B262",
"5 	c #617D45",
"6 	c #789147",
"7 	c #6A8D4E",
"8 	c #74944E",
"9 	c #6A854D",
"0 	c #73945A",
"a 	c #63844B",
"b 	c #6C8D52",
"c 	c #5B7937",
"d 	c #547B43",
"e 	c #5C7B43",
"f 	c #457C40",
"g 	c #728D56",
"h 	c #000000",
"i 	c #4D793F",
"j 	c #49733E",
"k 	c #5B854A",
"l 	c #4F7741",
"m 	c #372423",
"n 	c #222323",
"o 	c #758D4B",
"p 	c #537343",
"q 	c #538349",
"r 	c #4C7D42",
"s 	c #2D3136",
"t 	c #3E6838",
"u 	c #476A3C",
"v 	c #49251C",
"w 	c #2E3D47",
"x 	c #3E5832",
"y 	c #4C6A3A",
"z 	c #583126",
"A 	c #8BB26B",
"B 	c #89AD75",
"C 	c #82AA72",
"D 	c #71A565",
"E 	c #6E9868",
"F 	c #7BA26C",
"G 	c #5E8755",
"H 	c #71A15B",
"I 	c #885041",
"J 	c #6C8D63",
"K 	c #5B9054",
"L 	c #4E794D",
"M 	c #6C976B",
"N 	c #498943",
"O 	c #9A624C",
"P 	c #74B25B",
"Q 	c #6DA15A",
"R 	c #699563",
"S 	c #729D5D",
"T 	c #101520",
"U 	c #648C52",
"V 	c #477D3F",
"W 	c #608A5A",
"X 	c #6B9B62",
"Y 	c #76AF5D",
"Z 	c #1D2C43",
"` 	c #181F2F",
" .	c #628251",
"..	c #6F9D5E",
"+.	c #23324D",
"@.	c #5A994B",
"#.	c #54753C",
"$.	c #879A79",
"%.	c #889A7A",
"&.	c #798C6A",
"*.	c #819672",
"=.	c #738565",
"-.	c #6E8461",
";.	c #7B916B",
">.	c #758D61",
",.	c #627255",
"'.	c #6B7B5E",
").	c #5E7B49",
"!.	c #58654F",
"~.	c #54614B",
"{.	c #5D6B53",
"].	c #596651",
"^.	c #6A8552",
"/.	c #577939",
"(.	c #6C8459",
"_.	c #4C7131",
":.	c #5C7448",
"<.	c #4E752F",
"[.	c #35531E",
"}.	c #3D5E24",
"|.	c #4E663A",
"1.	c #4A6734",
"2.	c #90B46C",
"3.	c #3E572C",
"4.	c #425C2C",
"5.	c #9CAC88",
"6.	c #8C9782",
"7.	c #7B9868",
"8.	c #92B07C",
"9.	c #8AAD6B",
"0.	c #96AB81",
"a.	c #A1A69E",
"b.	c #9FA39B",
"c.	c #999E94",
"d.	c #909B86",
"e.	c #839D6A",
"f.	c #75916B",
"g.	c #90B272",
"h.	c #89A272",
"i.	c #9BA492",
"j.	c #939B8A",
"k.	c #858E7C",
"l.	c #87A371",
"m.	c #89B165",
"n.	c #7E9F61",
"o.	c #809A66",
"p.	c #677B5B",
"q.	c #849975",
"                    . + @ . . #     $     # #                                 % #   & * $ $ #   # # = * #   & - & # ;     # $   ",
"=       # %                               $ # *             > ,           $ $     #     $   # # $   #   # & #     # >   # # '   ",
")       $ #     $     )   = )       = &       !             ~ {     >   )     $ #   ) $ > # $ $ # # ' $ ' ] ]     ] , >         ",
"    '     # $ # $ # $ % $             & * #     $           ^ /     ( _   ) $ )     ) # #     # # $ #   ] # > # , :   # ~ { <   ",
")   #         # > $ $ $ # [ *   &       > }     }       #   < /     |     #   * & $ ) # #   # $ # # # # #     ] ] > $       ,   ",
"    =   *   $   $   %   $ [ [         1 #       ( # % $     > 2 ( > {   # $ =   # 1     $ $ # & & 3 # $ $ #   #   #   %       = ",
"  ) )   4 =         &     !       # # } _ #   , ~ $   1       / ,         1 ' $ 1 1   $ 1 > # #   , : 5 & 1 ' # # #   )         ",
"    ) & 4         & *   > >         # > _ $ # . ~ $   #                 &       6 , ( 1 $ $ } 7 8 ] 8 9 # 0 1 # # * 4       # > ",
"      & = > , ] % *   [ = >               # # ~ {   $       3 *       $ , $   1 1 ~ ,   ] 8 # a b ] + 7 a ] ]     ! #     # ] ] ",
"      *   # 0 0 #     ) > ) =       # #     $ ~ ^         = & *   # $ > . #   # ] 7     c } , d e + ~ a f g , , # # # #       # ",
"  # >       ] 0 #       h h h h h h h h #     h h h h h h h h h h h 1 > ~ $ 1   } { 1 # 8 + d 9 i ~ { j b # | > $ # =           ",
"  + 0   % $   = 4 &   h h h h h h h h h h h h h h h h h h h h h h h h h ~ # ] # 8 ~ + 1 $ ' d k d { ^ l ] . ] #     &     # > ; ",
"  > #   ( ( #   & & h h h m m m m m m h h h h h n n n n n n n n n h h h h     # o 1 8 8 # & > < p q r d 7 . # $ # # *   #   , : ",
"        ( ( $     h h h m m m m m m m m h h h n n n n n n n n s s s s h h h h # 8 1 7 8 ] ' ] a d t j u a } #   $   # & #     # ",
"= &     > ^ $ $ h h h m m m v v v v m m m h h n n n n n n s s s s s w w h h h h 8 1 7 ] 1 # ] 8 9 x y p b } $ #       $ #       ",
"  &     > ^ # h h h m m v v v v v v v v m h h n n n n n s s s s s w w w w w h h h 1 { ] 1 # # + 7 9 7 , ] ,   #   #           4 ",
"& &         h h h m v v v v v v v v v v m h h h n n n s s s s s w w w w w w w h h 8 ~ ] 1 $ # $ $ $     $       # $     > > > 4 ",
"= &     % h h h m v v v v z z z z v v v v m h h n n n s s s s w w w w w w w w h h h 8 1 3 # # #       # = * A - > # } % }   _ % ",
"        h h h m v v v z z z z z z z v v v m h h h n n s s s s w w w w w w w w w h h # # # &     #   % > [ B C D _ > . ( } ^ ^   ",
"      h h h m v v v z z z z z z z z z v v v m h h h n s s s s w w w w w w w w w h h h $ $ =       # > _ E F D _ G H ~ { _ ^   ) ",
"    h h h m v v v z z z z z z z z h h h h h h h h h h h h h h h h h w w w I I I I h h h #     =   % , ^ < J C K L M / < % N : # ",
"  h h h m v v v z z z z z z z h h h h h h h h h h h h h h h h h h h h h I I O O O O h h       _ }   P ^ / Q D ^ 2 R 2 q P N S = ",
"  h h m m v v z z z z z z z h h h h T T T T T T T T T T T T T T T h h h h h O O O O h h h     , k   P < ^ H % U V W < q P W X * ",
"h h h m v v v z z z z z z h h h T T T T T T T T T T T T T T T T T T T h h h h O O O O h h % $   ( _ Y { _ X _ U N _ < / P G R   ",
"h h m m v v z z z z z z h h h T T T T T T T T T T T Z Z T T T T T T T T T h h h O O O h h     $ = U Y ( ^ S % U V < ^ 2 { d # [ ",
"h h m m v v z z z z z z h h T T T T T T T T T T T Z Z Z Z T T T ` ` ` T T T h h h O O h h % $ > , U = (  .X % G r 2 . , < p = * ",
"h h m m v v z z z z z h h h T T T T T T T T T T Z Z Z Z Z Z T ` ` ` ` ` ` ` T h h O h h h # % # # _ _ U ( .._ ( < a U ~ , +   [ ",
"h h m m v v z z z z z h h T T T T T ` ` ` ` T Z Z Z Z Z Z Z Z ` ` ` ` ` ` ` T h h h h h , >   , . # , U #   % . , { { ( >     = ",
"h h m m v v z z z z h h h T T T ` ` ` ` ` ` ` ` Z +.+.+.Z Z Z ` ` ` ` ` ` ` ` T h h h > G ^   ^ . # > _ ] >   > . 7 ,   & + &   ",
"h h m m v v z z z z h h T T T T ` ` ` ` ` ` ` ` +.+.+.+.+.Z Z Z ` ` ` ` ` ` ` T h h > > N @.( (   # # # ] > = # , ( .   & 0 #   ",
"h h m m v v z z z z h h T T T ` ` ` ` ` ` ` ` ` ` +.+.+.+.+.Z Z ` ` ` ` ` ` ` T h h k ] i { l <         $   [     { >           ",
"h h m m v v v z z z h h T T T ` ` ` ` ` ` ` ` T ` +.+.+.+.+.Z Z ` ` ` ` ` ` ` T h h k a u p #.k   # #     = [         %         ",
"h h m m v v v v z z h h T T T ` ` ` ` ` ` ` T T T +.+.+.+.+.Z Z ` ` ` ` ` ` ` T h h . + @ + . #     #     $ >                   ",
"h h h m m v v v v v h h T T T ` ` ` ` ` ` ` ` T ` +.+.+.+.+.Z Z ` ` ` ` ` ` ` T h h       #               $ $ *             # } ",
"  h h h m m v v v v h h T T T ` ` ` ` ` ` ` ` ` ` +.+.+.+.+.Z Z ` ` ` ` ` ` ` T h h   =     )     3 & &       !             _ > ",
"    h h h m m m v v h h T T T T ` ` ` ` ` ` ` ` +.+.+.+.+.Z Z Z ` ` ` ` ` ` ` T h h $ # #             & &       %           ~ > ",
"    ^ h h h h h m m h h h T T T ` ` ` ` ` ` ` ` Z +.+.+.Z Z Z ` ` ` ` ` ` ` ` T h h 1 # # ) &   &       > ,     } #   %     ~ > ",
"{ > { h h h h h h h h h h T T T T T ` ` ` ` T Z Z Z Z Z Z Z Z ` ` ` ` ` ` ` T h h h     $ ) ) %       ] #       ~ #   $       > ",
"}     h h n n h h h h h h h T T T T T T T T T T Z Z Z Z Z Z T ` ` ` ` ` ` ` T h h   =     !         $ } _ #   , ~ $   #       > ",
"  %   h h n n n n n h h h h T T T T T T T T T T T Z Z Z Z T T T ` ` ` T T T h h h & *   > %       $   > _ 1 $ . {   $ # $       ",
")     h h n n n n n n h h h h T T T T T T T T T T T Z Z T T T T T T T T T h h h   *   * ) >             % # $ } {             * ",
"  $ > h h n n n n n n s s h h h T T T T T T T T T T T T T T T T T T T h h h h +       = > & =       #       $ ~ {           & * ",
"  $ 1 h h n n n n n s s s s h h h h T T T T T T T T T T T T T T T h h h h h > 0 #         $.%.&.| =   $ $               3 * * ' ",
"  % $ h h h n n n n s s s s s h h h h h h h h h h h h h h h h h h h h h   #     * &     *.$.=.-.;.>.a 0     =           &       ",
"% $ % $ h h n n n n s s s s s w w h h h h h h h h h h h h h h h h h >   ( ~ #   = &   ,.,.,.'.,.-.'.).: + , & & )   , >   >     ",
"        h h h n n n s s s s s w w w w w w w w I I O O O O O O h h       ( ( #       + . !.!.~.{.].{.@ + b + - & =   ( (   ^ ~   ",
"      > # h h n n n n s s s s w w w w w w w w I I O O O O O O h h &     , ^ $ 1 $       , + ^.^.@ #.a b b ~   $     % <   / /   ",
"  $   # # h h h n n n s s s s s w w w w w w w I I O O O O O O h h &     > ^ #     )   & &   &   = & = , # > >   )     ^ { > V   ",
", ~ /.(./._.h h h n n n s s s s s w w w w w w I I I O O O O O h h =             )     & & & &       $   3       *     # 2 ( 2   ",
"0 /.:.b /.<.).h h h n n n s s s s s s s s s s s I I I O O O h h h *           #         [   3     $ $   & & 3     #   % / { % } ",
"[.}.|.#._ p _.1.h h h n n n n s s s s s s s s n n I I I I h h h       # % ) #   )       [   #     $ $ >   * 2.*     [   . V | > ",
"#.3.}.4.e 1.}.4.4.h h h h n n n n n n n n n n h h h h h h h h =         $   #   %   & U _   #     #         =       * ) * / + } ",
", b b , 0   + , #   h h h h h h h h h h h h h h h h h h h h S #               # >   *   = &       [ >   ) )           % [ =   # ",
", + ]   =   # - 5.6.7.# h h h h h h h h h h h h h R N q P < S =     *     )     4       8.A 9.= . > ~ >         #   =     [ =   ",
"      #   # 0.a.b.c.d.e.    # } k   P / G Q Q U r W ^ q P G X *     &           [ *   8.! 4 9.f.^ U |   # (   # 1 #     %     ) ",
"4 g.A   %   h.d.i.j.k._ $       U ^ P ^ _ X (  .V ( k q P ^ R = )           > [ * = $.;.0 [ l.=.b   ^ =   (   , } # > $       & ",
"  m.A   =   n.o.0 &.9 , ]   # # = / P k k X Q ^ V ^ k r { d # [ &   =   $   {   = 4 . p.-.F q.p.0 ] {   = k > > $ # 1 1 $ ) %   ",
"        ) = # _ ] #     % #   } > r . q ^ X > ^ r d , , < l [ * )   )     $ 7 % = % . _ ; ! [ + _ = 7 ~ = < $ # > #   > $       ",
"  )     =     #   # > .       # # { q 2 ( X _ U q { U ~ + +   [ * ) * $ #   , , . 0 . > * * . ( % # } # a < # >   1       %     ",
"  * %         # U > > k } ,   , . , ^ V     Q U , 7 { . ;       ) )     # $ _ . , $ _   = $ ] _ # { d e < d #         ( ~ ( )   ",
") )             { (   > ^ k   ^ + ] > , , %   > ~ { +   & ,           =       #   # , > % _ . ^ U / d <   < <     #   > > ^ (   ",
"[         , ( ( _ / } , N @.( ( # $ # > ] > =   , b . = & } #   &       > > >       $ )   $ > < ( { / q     >           )       ",
")       % { ( ~ > q a > l { r <         ]   [     ^ ] =   %           # ( ^ ^             # %         &         -         '   ' ",
")                 ( k k u p p a     #       )                                     )     # # $       m.& &     & =   &       '   "};
