/* XPM */
static char *result[] = {
/* columns rows colors chars-per-pixel */
"64 64 70 1 ",
"  c #008ACF",
". c #008ED3",
"X c #0091D6",
"o c #0095DB",
"O c #0896D9",
"+ c #0199DE",
"@ c #0B9BDD",
"# c #139DDD",
"$ c #14A0DF",
"% c #1AA1DE",
"& c #23A3DE",
"* c #019DE3",
"= c #0A9FE1",
"- c #00A1E6",
"; c #0CA2E5",
": c #00A2E8",
"> c #0CA6E8",
", c #13A4E4",
"< c #1CA4E2",
"1 c #15A8E7",
"2 c #1DA9E6",
"3 c #10A7E9",
"4 c #13A8E9",
"5 c #1CABE9",
"6 c #23A6E3",
"7 c #29A7E0",
"8 c #25AAE5",
"9 c #2BACE5",
"0 c #23ADE9",
"q c #2BAFE9",
"w c #31AEE5",
"e c #3BADE2",
"r c #2CB1EA",
"t c #38B0E5",
"y c #33B3EA",
"u c #3BB6EB",
"i c #3EB8EC",
"p c #43B3E6",
"a c #4BB4E5",
"s c #43B6E9",
"d c #4AB7E9",
"f c #43B9EC",
"g c #4CBCEC",
"h c #53BDEC",
"j c #5BBEEA",
"k c #60BCE7",
"l c #64BFE9",
"z c #56C0EE",
"x c #5FC3F0",
"c c #71C6EE",
"v c #7BCBEF",
"b c #65C5F0",
"n c #69C6F0",
"m c #6EC9F0",
"M c #74CBF1",
"N c #7BCDF1",
"B c #82CFF1",
"V c #84D1F2",
"C c #8CD3F2",
"Z c #93D6F3",
"A c #9AD7F2",
"S c #96D8F3",
"D c #9CD9F4",
"F c #A3DBF4",
"G c #AADEF5",
"H c #B0DFF5",
"J c #B3E1F6",
"K c #BBE4F7",
"L c #C1E6F7",
"P c #C8E8F7",
/* pixels */
":::::::::::::-::::::::::::::::::::::::::::::::::::::::::::::::::",
":::::::::::::>::::::::::::::::::::::::::::::::::::::::::::::::::",
"::::::::::::3553>:::::::::::::::::::::::::::::::::::::::::::::::",
":::::::>>>35ryyr544=:::::::::::*::>::>::::::::::::::::::>:::::::",
":::>>>5qrruiuyuyq0554>>:::::>:>>3>43433>>::::::::::>>>3333>:::::",
":::>35ruuifsyqqr000554>:::::>50ryyyqq055>::::::::::>4443343>::::",
":::>3128988<,;,,3===>3>::>>40rfhjjjhhffir54::::::::>44>>>>::::::",
"::-==*;===****+;*****:::>3400wddjljjjhhgur54>>::::::::::::::::::",
"::***********:*****:::::*===##&&777eeetyq55344>>::::::::::::::::",
"::***:*:::::::::::::::::*o*X..oXoooX===**>>>>4>:::::::::::::::::",
":::::::::::::::::::::::******o***********:*::>:>::::::::::::::::",
"::::::::::::::::::::::::**:***::****:***::::::**::::::::::::::::",
"::::::::::::::::::::::::::::::::*::::::::::::>>3343443=:::::::::",
":::::::::::::::::::::::::::::::::::::::::::>455qryyyrqr5>>>=::::",
":::::::::::::::::::::::::::::::::::::::::::>500qrwuywyr634333>::",
"::::::::::::::::>4444::::::::::*:::::::::::>44,,<,<<,<<,=33,33>:",
"::::::::::::350yfbnNNbhxgfyr043>::::::::::::33***ooooo*o***===>:",
":*::::::::5ihnMNVSGHKKHGDZCCVNbgr543333333>>*:***ooo***o*****:::",
"::::::>40yhBCVVVVCFHKLKJFDFHHGDCmmbbhhhlhfq5;:::::***:****:*::::",
":::::>5rihjlMbhgyghbcNBVccNZFFDZZZZZCCCCMhr5**:::::*::::*:::::::",
":::::4009yw7<=***=<689epppdhhhllMNMBNBBlhw$=***:::::::::::::::::",
"::::::3=******oo.XXo*OO##%69q9q7rr40qtu6*oo+***:::::::::::::::::",
"::::::**ooo**oXXXoXooXXX.Xo**Oo*=***==,*++*+*:::::::::::::::::::",
"::::::*****o****o*+*ooXoo**oXoo*o****+****-**:::::::::::::::::::",
"::::::::::********:******:************::::::::::::::::::::::::::",
":::::::::::**:::*:::::**:::**:*:**:::::>:;:>:>:=;:::::::::::::::",
":::::::::::::::::::::::::::::::*:::>>34433343333333>;:::::::::::",
":::::::::::::::::::::::::::::::*:>334433,,,,333,33,33>::::::::::",
":::::>3=334443>>::::::::::::::***=33====**O*==***====;:-::::::::",
"::>>44445qqqrqq055>:*:::::::************oooooooXoooo***-::::::::",
"::40022<0999wryq004>::::*******o****:****o**************-:::::::",
">35053,,,,<$,<<<454:**************:::::*::::::::****-**-::::::::",
"4333===**********::***********:****>*:::::::::::::::::::::::::::",
"3>>:****o****:***::******::::::>>33>>>45>>::::::::::::::::::::::",
"::::*******::::::::::::::::::3550qygghffuyr04>>:::::::::::::::::",
":::::*:***::::::::::::::::>340yfgbNCSVMMBBVNmxfiuy05333>3>::::::",
"::::::::::::::::::::::::35ufgjMBNCDSDZVZFJKHJHDCVCNzffiiyr>:::::",
"::::::::::::::::::::::45yhbmmCZZVNMbbnmNCFGKLPHDFHFZCCVMmzr>::::",
"::::::::::3>::::::>>=40quhbjjlMlgur000rfgbNCDFZMVZCSZSSCCMgr54::",
"::::::>>4554>>>::>34,32009q0<<,==****:*0qyfgfiuryyuzxbMmMmgri5::",
":::::>50ryrr544>*333=*=**+oooooo*o*o***==@#=********=330ry0<04::",
"::::>455qrr0544>*==********oo******oooooo...X...XXoooo****o**:::",
"::::>333>354>::::***:***:*::-::*:***o..oo....  ...XXXooo*Xo**:::",
":::::>:::::::::::::>>>>3333343>>>****oo***oooo.oXXXoo********:::",
"::::::::::::::::::>444444445000q5>::***************::::*::::::::",
"::::::::::::::::::>3333>>>4555qrr4>:********:**:::::::::::::::::",
":::::::::::::::::::>:****:*:>;,65=**:******:::::::::::::::::::::",
":::::::::::::::::::::***************::::**::>>544433>>>>::::::::",
"::::::::::::::::::::::-************:::::::>45qusuryyr003>>::::::",
"::::::::::>5ry0050553::::---*:***:::::::::>00qssuqyffur05>3>>:::",
":::::::>3yflMNnxhhddfy0533;:::::::::::::::=43##<<$20wqq254443:::",
"::::::>qfjMBSDCCZCBvMMnhfuq>:::::::::::::**=*XXoX**===33=>=3;*::",
":::::30uhhjjmNNVCZBZZDACMmlgfiiq043:::::::**+oXXo*****++o****:::",
"-**-*,9676##0yfgjklllCCBNMNBVCVllhu5053::::*-*++**-**o*+o****:::",
"-*+*+oOOX..*****@#<6udhsfghlBCCBMlgyuuq::::::::::::*******-:::::",
"***++oXXXX.oXooXXXXX+OO+==$&wsaptpyqww4::::::::::::*****::::::::",
":****==*=*****oooX....  .X.XoOoXO=@==*-:::::::::::----::::::::::",
":::35880qr05,33==o..X.   .X.XooXo==-*--:::::::::::::-:-:::::::::",
":>>5ruiffggfyq02;+++++XXXo+++*-**--:>>>>>>3>;:::::::::::::::::::",
"::300qwtssdsw96#=++-:-+**-::::::;>550205520053>:::::::::::::::::",
"::>44>=###%%,OO*+*:-::::-::::::>35qywqwywqq92233>:::::::::::::::",
":::::****o******+-::::::-:::::353466<<6676<#,45333::::::::::::::",
"::::::**********::::::::::::::>33:=+++@@##=*==3>3>::::::::::::::",
"::::::::**:::::*::::::::::::::::::-+**++*o***::::::::-:::::-::::"
};
